<svg width="13" height="15" viewBox="0 0 13 15" fill="none" xmlns="http://www.w3.org/2000/svg">
<path d="M6.16587 15C6.99519 15 7.71635 14.3149 7.71635 13.4856H4.61538C4.61538 14.3149 5.33654 15 6.16587 15ZM10.7813 10.3846V6.5625C10.7813 4.18269 9.51923 2.19952 7.31971 1.69471V1.15385C7.31971 0.540865 6.8149 0 6.16587 0C5.51683 0 5.01202 0.540865 5.01202 1.15385V1.69471C2.8125 2.19952 1.55048 4.18269 1.55048 6.5625V10.3846L0 11.9351V12.6923H12.3317V11.9351L10.7813 10.3846ZM9.23077 11.1779H3.10096V6.5625C3.10096 4.65144 4.25481 3.10096 6.16587 3.10096C8.07692 3.10096 9.23077 4.65144 9.23077 6.5625V11.1779Z" fill="black"/>
</svg>
