<svg width="15" height="15" viewBox="0 0 15 15" fill="none" xmlns="http://www.w3.org/2000/svg">
<path d="M7.5 0C3.34507 0 0 3.34507 0 7.5C0 11.6549 3.34507 15 7.5 15C11.6549 15 15 11.6549 15 7.5C15 3.34507 11.6549 0 7.5 0ZM1.47887 7.5C1.47887 7.04225 1.5493 6.58451 1.65493 6.16197L5.24648 9.75352V10.493C5.24648 11.338 5.91549 12.007 6.72535 12.007V13.4507C3.80282 13.0986 1.47887 10.5634 1.47887 7.5ZM11.9366 11.5493C11.7254 10.9507 11.162 10.493 10.493 10.493H9.75352V8.23944C9.75352 7.85211 9.40141 7.5 8.97887 7.5H4.47183V5.98592H5.98592C6.40845 5.98592 6.72535 5.66901 6.72535 5.24648V3.73239H8.23944C9.08451 3.73239 9.75352 3.06338 9.75352 2.25352V1.93662C11.9366 2.8169 13.5211 5 13.5211 7.5C13.5211 9.0493 12.8873 10.493 11.9366 11.5493Z" fill="black"/>
</svg>
