<svg width="18" height="19" viewBox="0 0 18 19" fill="none" xmlns="http://www.w3.org/2000/svg">
<path d="M15.8469 10.0766C15.8469 9.77512 15.89 9.47368 15.89 9.17225C15.89 8.87081 15.8469 8.56938 15.8469 8.26794L17.7847 6.76077C17.9569 6.63158 18 6.37321 17.8708 6.15789L16.0191 2.97129C15.933 2.84211 15.8038 2.75598 15.6316 2.75598C15.5885 2.75598 15.5024 2.75598 15.4593 2.79904L13.177 3.70335C12.7033 3.35885 12.1866 3.01435 11.6268 2.79904L11.2823 0.38756C11.2392 0.172249 11.067 0 10.8517 0H7.14833C6.93301 0 6.76077 0.172249 6.7177 0.38756L6.37321 2.79904C5.8134 3.01435 5.29665 3.35885 4.82297 3.70335L2.54067 2.79904C2.45455 2.75598 2.41148 2.75598 2.36842 2.75598C2.19617 2.75598 2.06699 2.84211 1.98086 2.97129L0.129187 6.15789C0 6.37321 0.0430622 6.63158 0.215311 6.76077L2.15311 8.26794C2.15311 8.56938 2.11005 8.87081 2.11005 9.17225C2.11005 9.47368 2.15311 9.77512 2.15311 10.0766L0.215311 11.5837C0.0430622 11.7129 0 11.9713 0.129187 12.1866L1.98086 15.3732C2.06699 15.5024 2.19617 15.5885 2.36842 15.5885C2.41148 15.5885 2.49761 15.5885 2.54067 15.5455L4.82297 14.6411C5.29665 14.9856 5.8134 15.3301 6.37321 15.5455L6.7177 17.9569C6.76077 18.1722 6.93301 18.3445 7.14833 18.3445H10.8517C11.067 18.3445 11.2392 18.1722 11.2823 17.9569L11.6268 15.5455C12.1866 15.3301 12.7033 14.9856 13.177 14.6411L15.4593 15.5455C15.5455 15.5885 15.5885 15.5885 15.6316 15.5885C15.8038 15.5885 15.933 15.5024 16.0191 15.3732L17.8708 12.1866C18 11.9713 17.9569 11.7129 17.7847 11.5837L15.8469 10.0766ZM13.9952 8.48325C14.0383 8.78469 14.0383 9 14.0383 9.17225C14.0383 9.3445 14.0383 9.55981 13.9952 9.86124L13.866 10.8947L14.6842 11.5407L15.6746 12.3158L15.0287 13.3923L13.866 12.9187L12.9187 12.5742L12.1005 13.177C11.7129 13.4785 11.3254 13.6938 10.9378 13.866L9.99043 14.2536L9.81818 15.2871L9.64593 16.5359H8.35407L8.18182 15.2871L8.05263 14.2536L7.0622 13.866C6.67464 13.6938 6.28708 13.4785 5.94258 13.177L5.08134 12.5742L4.13397 12.9617L2.97129 13.4354L2.32536 12.3158L3.31579 11.5407L4.13397 10.8947L4.00478 9.86124C3.96172 9.55981 3.96172 9.3445 3.96172 9.17225C3.96172 9 3.96172 8.78469 4.00478 8.48325L4.13397 7.44976L3.31579 6.80383L2.32536 6.02871L2.97129 4.95215L4.13397 5.42584L5.08134 5.77033L5.89952 5.16746C6.28708 4.86603 6.67464 4.65072 7.0622 4.47847L8.00957 4.09091L8.18182 3.05742L8.35407 1.80861H9.64593L9.81818 3.05742L9.94737 4.09091L10.9378 4.47847C11.3254 4.65072 11.7129 4.86603 12.0574 5.16746L12.8756 5.77033L13.866 5.38278L15.0287 4.90909L15.6746 6.02871L14.6842 6.80383L13.866 7.44976L13.9952 8.48325ZM9 5.51196C6.97608 5.51196 5.33971 7.14833 5.33971 9.17225C5.33971 11.1962 6.97608 12.8325 9 12.8325C11.0239 12.8325 12.6603 11.1962 12.6603 9.17225C12.6603 7.14833 11.0239 5.51196 9 5.51196ZM9 11.0239C8.00957 11.0239 7.14833 10.1627 7.14833 9.17225C7.14833 8.18182 8.00957 7.32057 9 7.32057C9.99043 7.32057 10.8517 8.18182 10.8517 9.17225C10.8517 10.1627 9.99043 11.0239 9 11.0239Z" fill="white" fill-opacity="0.5"/>
</svg>
