<svg width="224" height="154" viewBox="0 0 224 154" fill="none" xmlns="http://www.w3.org/2000/svg">
<path d="M10 57.7C10 56.5954 10.8954 55.7 12 55.7C13.1046 55.7 14 56.5954 14 57.7V154H10V57.7Z" fill="#23E33E"/>
<path d="M0 2C0 0.895431 0.895431 0 2 0C3.10457 0 4 0.895431 4 2V154H0V2Z" fill="#0052FF"/>
<path d="M70 52C70 50.8954 70.8954 50 72 50C73.1046 50 74 50.8954 74 52V154H70V52Z" fill="#0052FF"/>
<path d="M80 117.392C80 116.288 80.8954 115.392 82 115.392C83.1046 115.392 84 116.288 84 117.392V154H80V117.392Z" fill="#23E33E"/>
<path d="M140 112.801C140 111.697 140.895 110.801 142 110.801C143.105 110.801 144 111.697 144 112.801V154H140V112.801Z" fill="#0052FF"/>
<path d="M150 107C150 105.895 150.895 105 152 105C153.105 105 154 105.895 154 107V154H150V107Z" fill="#23E33E"/>
<path d="M210 43.7656C210 42.6611 210.895 41.7656 212 41.7656C213.105 41.7656 214 42.6611 214 43.7656V154H210V43.7656Z" fill="#0052FF"/>
<path d="M220 18C220 16.8954 220.895 16 222 16C223.105 16 224 16.8954 224 18V154H220V18Z" fill="#23E33E"/>
</svg>
