<svg width="21" height="16" viewBox="0 0 21 16" fill="none" xmlns="http://www.w3.org/2000/svg">
<path d="M18.8209 4.71625C17.4545 4.71625 16.7052 6.03857 17.0138 7.05234L13.6639 10.4022C13.3994 10.314 12.9587 10.314 12.6942 10.4022L10.314 8.02204C10.6226 7.00826 9.8292 5.64187 8.46281 5.64187C7.09642 5.64187 6.34711 7.00826 6.65565 8.02204L2.38017 12.2975C1.36639 11.989 0 12.7383 0 14.1047C0 15.1185 0.881543 16 1.89532 16C3.26171 16 4.01102 14.6336 3.70248 13.6198L7.97796 9.34435C8.2865 9.43251 8.6832 9.43251 8.94766 9.34435L11.3719 11.7245C11.0634 12.7383 11.8127 14.1047 13.1791 14.1047C14.5455 14.1047 15.2948 12.7383 14.9862 11.7245L18.3361 8.41873C19.3499 8.72727 20.7163 7.93388 20.7163 6.56749C20.7163 5.55372 19.8347 4.71625 18.8209 4.71625ZM13.1791 5.64187L14.0606 3.70248L16 2.82094L14.0606 1.93939L13.1791 0L12.2975 1.93939L10.3581 2.82094L12.2975 3.70248L13.1791 5.64187ZM2.38017 7.53719L2.82094 5.64187L4.71625 5.15702L2.82094 4.71625L2.38017 2.82094L1.89532 4.71625L0 5.15702L1.89532 5.64187L2.38017 7.53719Z" fill="#747A80"/>
</svg>
