<svg width="15" height="15" viewBox="0 0 15 15" fill="none" xmlns="http://www.w3.org/2000/svg">
<path d="M8.23944 3.73239H6.76056V6.76056H3.73239V8.23944H6.76056V11.2676H8.23944V8.23944H11.2676V6.76056H8.23944V3.73239ZM7.5 0C3.34507 0 0 3.34507 0 7.5C0 11.6549 3.34507 15 7.5 15C11.6549 15 15 11.6549 15 7.5C15 3.34507 11.6549 0 7.5 0ZM7.5 13.5211C4.19014 13.5211 1.47887 10.8099 1.47887 7.5C1.47887 4.19014 4.19014 1.47887 7.5 1.47887C10.8099 1.47887 13.5211 4.19014 13.5211 7.5C13.5211 10.8099 10.8099 13.5211 7.5 13.5211Z" fill="black"/>
</svg>
