<svg width="40" height="40" viewBox="0 0 40 40" fill="none" xmlns="http://www.w3.org/2000/svg">
<rect width="40" height="40" rx="20" fill="black"/>
<mask id="mask0_0_7763" style="mask-type:luminance" maskUnits="userSpaceOnUse" x="0" y="0" width="40" height="40">
<rect width="40" height="40" rx="20" fill="white"/>
</mask>
<g mask="url(#mask0_0_7763)">
<rect width="40" height="40" fill="#0052FF"/>
<rect x="11.5625" y="8.75" width="6.5625" height="3.75" fill="white"/>
<path d="M13.75 29.375V10.625H21.8157C23.2026 10.625 24.4161 10.8997 25.4562 11.449C26.4964 11.9983 27.3054 12.7704 27.8832 13.7653C28.4611 14.7601 28.75 15.9229 28.75 17.2534C28.75 18.5962 28.4535 19.7589 27.8604 20.7416C27.2673 21.7242 26.437 22.4811 25.3695 23.0121C24.302 23.5431 23.0566 23.8086 21.6332 23.8086H16.8157V19.8535H20.6113C21.2074 19.8535 21.7168 19.7482 22.1396 19.5377C22.5623 19.3271 22.8878 19.0265 23.1159 18.6359C23.344 18.2452 23.458 17.7844 23.458 17.2534C23.458 16.7163 23.344 16.257 23.1159 15.8755C22.8878 15.4941 22.5623 15.2011 22.1396 14.9966C21.7168 14.7922 21.2074 14.6899 20.6113 14.6899H18.823V29.375H13.75Z" fill="white"/>
</g>
</svg>
