<svg width="926" height="226" viewBox="0 0 926 226" fill="none" xmlns="http://www.w3.org/2000/svg">
<path d="M10 83.7415C10 82.6369 10.8954 81.7415 12 81.7415C13.1046 81.7415 14 82.6369 14 83.7415V226H10V83.7415Z" fill="#23E33E"/>
<path d="M0 2C0 0.895431 0.89543 0 2 0C3.10457 0 4 0.89543 4 2V226H0V2Z" fill="#0052FF"/>
<path d="M82 75.0418C82 73.9372 82.8954 73.0418 84 73.0418C85.1046 73.0418 86 73.9372 86 75.0418V226H82V75.0418Z" fill="#0052FF"/>
<path d="M92 171.217C92 170.113 92.8954 169.217 94 169.217C95.1046 169.217 96 170.113 96 171.217V226H92V171.217Z" fill="#23E33E"/>
<path d="M164 164.411C164 163.306 164.895 162.411 166 162.411C167.105 162.411 168 163.306 168 164.411V226H164V164.411Z" fill="#0052FF"/>
<path d="M174 155.871C174 154.766 174.895 153.871 176 153.871C177.105 153.871 178 154.766 178 155.871V226H174V155.871Z" fill="#23E33E"/>
<path d="M425 136.687C425 135.583 425.895 134.687 427 134.687C428.105 134.687 429 135.583 429 136.687V226H425V136.687Z" fill="#23E33E"/>
<path d="M414 75.0418C414 73.9372 414.895 73.0418 416 73.0418C417.105 73.0418 418 73.9372 418 75.0418V226H414V75.0418Z" fill="#0052FF"/>
<path d="M922 136.687C922 135.583 922.895 134.687 924 134.687C925.105 134.687 926 135.583 926 136.687V226H922V136.687Z" fill="#23E33E"/>
<path d="M911 75.0418C911 73.9372 911.895 73.0418 913 73.0418C914.105 73.0418 915 73.9372 915 75.0418V226H911V75.0418Z" fill="#0052FF"/>
<path d="M246 63.8707C246 62.7662 246.895 61.8707 248 61.8707C249.105 61.8707 250 62.7662 250 63.8707V226H246V63.8707Z" fill="#0052FF"/>
<path d="M256 26.1916C256 25.087 256.895 24.1916 258 24.1916C259.105 24.1916 260 25.087 260 26.1916V226H256V26.1916Z" fill="#23E33E"/>
<path d="M332 2C332 0.895431 332.895 0 334 0C335.105 0 336 0.89543 336 2V226H332V2Z" fill="#0052FF"/>
<path d="M342 73.7662C342 72.6616 342.895 71.7662 344 71.7662C345.105 71.7662 346 72.6616 346 73.7662V226H342V73.7662Z" fill="#23E33E"/>
<path d="M751 94.4841C751 93.3796 751.895 92.4841 753 92.4841C754.105 92.4841 755 93.3796 755 94.4841V226H751V94.4841Z" fill="#23E33E"/>
<path d="M740 3.71863C740 2.61406 740.895 1.71863 742 1.71863C743.105 1.71863 744 2.61406 744 3.71863V226H740V3.71863Z" fill="#0052FF"/>
<path d="M669 171.217C669 170.113 669.895 169.217 671 169.217C672.105 169.217 673 170.113 673 171.217V226H669V171.217Z" fill="#23E33E"/>
<path d="M659 145.506C659 144.401 659.895 143.506 661 143.506C662.105 143.506 663 144.401 663 145.506V226H659V145.506Z" fill="#0052FF"/>
<path d="M573 55.2776C573 54.173 573.895 53.2776 575 53.2776C576.105 53.2776 577 54.173 577 55.2776V226H573V55.2776Z" fill="#0052FF"/>
<path d="M583 154.336C583 153.231 583.895 152.336 585 152.336C586.105 152.336 587 153.231 587 154.336V226H583V154.336Z" fill="#23E33E"/>
<path d="M826 55.2776C826 54.173 826.895 53.2776 828 53.2776C829.105 53.2776 830 54.173 830 55.2776V226H826V55.2776Z" fill="#0052FF"/>
<path d="M836 154.336C836 153.231 836.895 152.336 838 152.336C839.105 152.336 840 153.231 840 154.336V226H836V154.336Z" fill="#23E33E"/>
<path d="M496 172.144C496 171.04 496.895 170.144 498 170.144C499.105 170.144 500 171.04 500 172.144V226H496V172.144Z" fill="#0052FF"/>
<path d="M506 180.425C506 179.321 506.895 178.425 508 178.425C509.105 178.425 510 179.321 510 180.425V226H506V180.425Z" fill="#23E33E"/>
</svg>
