<svg width="403" height="250" viewBox="0 0 403 250" fill="none" xmlns="http://www.w3.org/2000/svg">
<path d="M330.498 239.151L326.331 238.175L328.851 219L335 220.439L330.498 239.151Z" fill="#FFB6B6"/>
<path d="M314.048 244.096C313.866 244.794 314.216 245.489 314.828 245.648L323.048 247.778C323.048 247.778 324.701 244.741 328.362 244.198L327.382 248.901L331.623 250L333.05 242.4C333.05 242.4 335.222 238.698 333.397 236.046C331.572 233.393 333.407 234.172 333.407 234.172L333.681 229.31L327.078 228.402L325.145 235.645L320.164 242.04L315.019 243.108C314.561 243.203 314.179 243.591 314.048 244.096H314.048L314.048 244.096Z" fill="#2F2E41"/>
<path d="M370.184 234.95L366.435 236.894L356 220.869L361.532 218L370.184 234.95Z" fill="#FFB6B6"/>
<path d="M361.036 249.233C361.349 249.875 362.057 250.172 362.618 249.898L370.147 246.217C370.147 246.217 369.433 242.874 371.828 240.114L374.116 244.277L378 242.378L374.185 235.751C374.185 235.751 373.434 231.575 370.362 230.754C367.289 229.934 369.164 229.341 369.164 229.341L366.245 225.512L360.714 229.072L363.92 235.755L364.298 243.76L361.129 247.868C360.847 248.233 360.81 248.77 361.036 249.233L361.036 249.233L361.036 249.233Z" fill="#2F2E41"/>
<path d="M146.529 163H257.471C258.868 163 260 161.868 260 160.472V3.52832C260 2.13197 258.868 1 257.471 1H146.529C145.132 1 144 2.13197 144 3.52832V160.472C144 161.868 145.132 163 146.529 163Z" fill="white"/>
<path fill-rule="evenodd" clip-rule="evenodd" d="M144 164H261V0H144V164ZM260.053 163.048H144.947V0.951957H260.053V163.048Z" fill="#E6E6E6"/>
<path d="M234.185 26C234.635 26 235 26.4477 235 27V29C235 29.5523 234.635 30 234.185 30H169.815C169.365 30 169 29.5523 169 29V27C169 26.4477 169.365 26 169.815 26H234.185Z" fill="#E6E6E6"/>
<path d="M234.185 34C234.635 34 235 34.4477 235 35V37C235 37.5523 234.635 38 234.185 38H169.815C169.365 38 169 37.5523 169 37V35C169 34.4477 169.365 34 169.815 34H234.185Z" fill="#E6E6E6"/>
<path d="M234.185 42C234.635 42 235 42.4477 235 43V45C235 45.5523 234.635 46 234.185 46H169.815C169.365 46 169 45.5523 169 45V43.0006C169 42.4483 169.365 42.0006 169.815 42.0006H234.185" fill="#FF6884"/>
<path d="M353.691 61.9981H375.069C375.038 60.9854 375.251 59.9801 375.691 59.0691C375.704 60.0801 375.924 61.0775 376.339 61.9981H377.31C378.795 61.9966 379.998 60.783 380 59.2854V45.2783C379.999 38.4201 374.184 28.1392 367.864 32.4413C367.661 32.4306 364.457 31 364.253 31C358.694 31.0045 356.782 36.0629 355.103 41.4066C353.19 40.5178 351.872 44.2279 350.919 50.7583C350.641 52.664 350.393 54.8098 350.171 57.1516C349.559 59.1165 350.641 61.2103 352.59 61.8282C352.947 61.9414 353.319 61.9993 353.693 62L353.691 61.9981L353.691 61.9981Z" fill="#2F2E41"/>
<path d="M310.615 141.161C309.488 143.634 309.953 146.176 311.653 146.84C313.353 147.504 315.645 146.038 316.772 143.564C317.237 142.582 317.441 141.51 317.367 140.44L322 129.907L316.613 128L312.616 138.587C311.736 139.284 311.05 140.167 310.614 141.161L310.615 141.161H310.615Z" fill="#FFB6B6"/>
<path d="M357.244 57L367.437 59.1618L365.873 63.9171L369 100.289L363.789 112L332 109.358L339.817 93.5053C339.817 93.5053 336.69 80.2958 340.859 77.6528C345.029 75.0097 351.803 61.8002 351.803 61.8002L357.244 57L357.244 57Z" fill="#0052FF"/>
<path d="M367.257 62.0023L376.334 65.6673L373.191 111.64L380 151.343L358 155C358 155 360.619 67.2346 362.19 65.6673C363.761 64.0999 367.257 62 367.257 62V62.0023V62.0023Z" fill="#2F2E41"/>
<path d="M350 67.9754C350 67.9754 344.071 64.2666 340.867 67.0128C337.664 69.759 313 136.142 313 136.142L319.652 139L334.909 107.373L350 67.9754H350Z" fill="#2F2E41"/>
<path d="M332.961 179.601L327 225.478L335.338 226C335.338 226 339.674 214.156 344.62 200.205C345.673 197.246 346.751 194.194 347.82 191.137C348.976 187.819 350.129 184.5 351.223 181.297C353.927 173.398 356.299 166.208 357.653 161.512C357.888 160.688 358.096 159.942 358.268 159.284C361.914 145.26 364 108.609 364 108.609L333.774 106L333.451 106.402L327 114.473L327.302 116.179L335.338 161.305L332.962 179.603L332.961 179.601L332.961 179.601Z" fill="#2F2E41"/>
<path d="M335.179 161.904L332.761 180.318L343.638 199.278L344.624 201.053L359.601 228L367 223.847C367 223.847 357.374 201.945 351.344 182.023C350.675 179.834 350.055 177.665 349.498 175.554C347.859 169.374 350.543 158.095 349.493 154.987C345.945 144.496 334.383 123.508 329.015 114L327 116.489L335.179 161.904Z" fill="#2F2E41"/>
<path d="M352 62L341.495 66.0709L314 147.377L330.601 150L338.382 102.79L352 62V62Z" fill="#2F2E41"/>
<path d="M378.484 148.568C378.763 151.175 380.439 153.155 382.228 152.99C384.016 152.826 385.239 150.578 384.96 147.97C384.864 146.927 384.5 145.92 383.899 145.034L382.568 134L377 134.69L378.903 145.494C378.501 146.473 378.358 147.527 378.484 148.568V148.568Z" fill="#FFB6B6"/>
<path d="M373 65.3354C373 65.3354 379.782 63.761 381.869 67.4345C383.956 71.1081 385 142.475 385 142.475L377.823 143L374.044 107.842L373 65.3368L373 65.3354L373 65.3354Z" fill="#2F2E41"/>
<circle cx="364" cy="45" r="11" fill="#FFB6B6"/>
<path d="M368.252 62H373.668C373.943 62 374.177 61.7893 374.19 61.5164L374.191 61.4863C374.221 60.9174 375.024 60.8217 375.211 61.3604C375.286 61.5771 375.372 61.7905 375.467 62H376V45.2133C376 42.3341 373.649 40 370.75 40H370.75C368.274 40 366.135 41.7172 365.616 44.1209C365.616 44.1209 361.936 48.6032 364.105 51.1231C366.274 53.6431 363.119 55.6943 363.119 55.6943C362.418 58.9397 364.91 62 368.252 62L368.252 62Z" fill="#2F2E41"/>
<path d="M190.869 81.5133C192.096 80.7127 192.355 78.9996 191.496 77.8048L187.474 72.2081C186.535 70.8995 184.724 70.6088 183.43 71.5587C183.315 71.6429 183.207 71.7354 183.106 71.8357C176.295 75.5176 172.629 80.8945 176.705 87.2506C176.705 88.3121 176.782 89.3721 176.934 90.4223C177 90.878 177.152 91.3237 177.409 91.7039C178.173 92.8328 179.52 93.2472 180.705 92.8565L187.283 90.6951C188.681 90.2359 189.438 88.6929 188.921 87.3016C188.254 85.5036 188.529 83.0393 190.869 81.5133H190.869Z" fill="#F2F2F2"/>
<path d="M205.413 97.5588C203.572 97.3807 202 98.8677 202 100.681V106.091C202 106.232 202.011 106.372 202.033 106.51C202.269 108.018 203.708 109.052 205.247 108.82C214.215 109.903 220.344 106.081 220.713 97.6948C220.772 97.5772 220.822 97.4555 220.863 97.3309C221.341 95.8818 220.53 94.3272 219.051 93.8588L213.693 92.1526C211.844 91.564 209.923 92.7401 209.6 94.6184C209.308 96.3151 208.165 97.8251 205.413 97.5588Z" fill="#E6E6E6"/>
<path d="M172.409 103.318C174.297 114.182 184.13 118.303 194.386 118.955C194.587 118.985 194.79 119 194.993 119C197.205 119.001 198.999 117.264 199 115.119V106.034C199 103.493 196.852 101.514 194.23 101.488C191.696 101.464 190.045 100.301 189.366 98.1667C188.591 95.7286 185.828 94.4431 183.325 95.2316L174.771 97.9263C173.663 98.2751 172.766 99.0739 172.314 100.115C171.864 101.145 171.899 102.314 172.409 103.318H172.409Z" fill="#3F3D56"/>
<path d="M224.331 65.14C222.729 63.5975 220.158 63.6236 218.589 65.1984C218.45 65.3386 218.321 65.4887 218.203 65.6475L210.491 76.0838C209.505 77.4182 210.068 79.2773 211.61 79.9289C215.22 81.4552 214.841 84.8812 213.665 86.978C213.089 88.0054 213.565 89.2913 214.7 89.6538L227.696 93.8055C229.834 94.4841 232.127 93.3302 232.818 91.2282C232.887 91.0165 232.939 90.7996 232.972 90.5795C233.195 89.1167 233.307 87.6396 233.307 86.1604C235.505 78.1006 232.463 70.5029 224.331 65.14H224.331Z" fill="#FF6884"/>
<path d="M202.809 76.9673C204.214 77.7758 205.987 77.3847 206.935 76.0514L209.456 72.5051C209.946 71.8174 210.116 70.945 209.921 70.1182C209.733 69.3065 209.207 68.6199 208.48 68.2397C202.547 62.761 195.524 62.4248 189.569 68.2117C188.821 68.5977 188.276 69.3002 188.079 70.1332C187.885 70.9542 188.053 71.821 188.54 72.5039L191.486 76.6485C192.498 78.0719 194.459 78.4443 195.853 77.4125C197.88 75.9133 200.823 75.8251 202.809 76.9673V76.9673Z" fill="#E6E6E6"/>
<rect y="249" width="403" height="1" fill="#E6E6E6"/>
<path d="M169.413 146.781C169.64 145.763 170.703 145.428 171.573 145.466C172.122 145.506 172.667 145.597 173.201 145.74C173.759 145.873 174.312 146.03 174.863 146.197C175.873 146.503 176.871 146.873 177.897 147.112C178.758 147.362 179.664 147.376 180.532 147.153C181.366 146.91 182.023 146.225 182.268 145.343C182.517 144.5 182.158 143.59 181.418 143.187C180.734 142.786 179.873 143.051 179.496 143.778C179.49 143.789 179.485 143.8 179.48 143.811C179.162 144.708 179.411 145.72 180.101 146.338C180.454 146.691 180.842 147.003 181.256 147.271C181.677 147.575 182.145 147.798 182.639 147.929C183.48 148.166 184.368 147.797 184.835 147.018C184.928 146.832 184.984 146.627 184.999 146.416C185.023 146.13 184.603 146.132 184.578 146.416C184.507 147.237 183.604 147.62 182.927 147.53C182.471 147.45 182.035 147.27 181.648 147.002C181.273 146.771 180.919 146.505 180.588 146.208C180.014 145.68 179.477 144.813 179.862 143.99C180.162 143.462 180.808 143.291 181.305 143.609C181.372 143.652 181.434 143.702 181.49 143.759C182.092 144.283 181.984 145.232 181.587 145.853C181.11 146.502 180.374 146.875 179.6 146.861C178.783 146.862 177.971 146.727 177.194 146.46C176.224 146.167 175.265 145.84 174.291 145.564C173.738 145.408 173.181 145.267 172.618 145.157C172.086 145.032 171.539 144.992 170.996 145.038C170.079 145.084 169.285 145.731 169.006 146.661C168.945 146.942 169.351 147.062 169.413 146.781L169.413 146.781Z" fill="#3F3D56"/>
<path d="M186.765 135C186.895 135 187 135.447 187 136V138C187 138.552 186.895 139 186.765 139H168.235C168.105 139 168 138.553 168 138V136C168 135.447 168.105 135 168.235 135H186.765Z" fill="#E6E6E6"/>
<path d="M234.765 135C234.895 135 235 135.447 235 136V138C235 138.552 234.895 139 234.765 139H216.235C216.105 139 216 138.553 216 138V136C216 135.447 216.105 135 216.235 135H234.765Z" fill="#E6E6E6"/>
<path d="M227.172 144.505L223.48 145.754L221.634 146.379C221.067 146.627 220.453 146.742 219.837 146.717C219.382 146.686 218.983 146.396 218.803 145.967C218.725 145.537 218.905 145.1 219.262 144.859C220.143 144.172 221.257 144.871 221.881 145.581C222.645 146.451 223.077 147.573 223.793 148.483C224.431 149.3 225.239 149.959 226.159 150.414C227.996 151.347 230.189 151.155 231.845 149.916C233.791 148.379 233.99 145.715 234 143.39C233.992 143.167 233.809 142.992 233.591 143C233.384 143.008 233.218 143.178 233.21 143.39C233.201 145.497 233.084 148.079 231.208 149.397C229.411 150.66 227.05 150.325 225.395 148.979C224.542 148.202 223.832 147.274 223.3 146.24C222.709 145.25 221.976 144.294 220.863 143.91C219.88 143.544 218.781 143.937 218.235 144.85C217.763 145.662 218.024 146.712 218.818 147.194C218.879 147.232 218.943 147.265 219.008 147.294C220.298 147.923 221.773 147.186 223.014 146.766L227.383 145.287C227.864 145.125 227.658 144.344 227.174 144.508L227.172 144.505L227.172 144.505Z" fill="#0052FF"/>
<path d="M351.071 43.2883C351.463 43.9227 353.541 41.6018 356.733 41.3459C357.546 41.2791 359.378 44.3567 361.479 44.4012C362.872 44.429 363.729 44.4179 365.444 44.4012C367.471 44.3789 368.026 44.3344 368.417 43.8448C369.176 42.8932 368.551 41.2016 368.913 41.0625C369.215 40.9456 369.998 41.9917 370.4 43.2883C371.242 46.0094 368.219 49.7989 367.922 53.3046C367.604 57.0829 370.727 49.8434 370.4 53.3046C370.033 57.1998 368.72 56.9048 368.734 58.3127C368.739 58.5241 368.794 58.7078 368.913 58.8691C369.017 59.0138 369.121 59.0695 370.895 59.4256C373.016 59.8541 374.082 60.0655 374.364 59.9821C375.093 59.7706 375.831 58.5965 376.347 57.7562C377.199 56.3818 376.595 57.7673 376.347 56.0869C376.109 54.462 375.366 54.2505 375.356 52.7481C375.346 50.8561 376.52 50.283 377.338 48.2964C378.85 44.6238 377.373 40.3725 376.842 38.8366C376.588 38.1001 376.126 37.1679 375.316 35.6278C374.666 34.3913 373.804 33.3022 372.752 32.4861C371.175 31.2629 369.343 30.4248 367.363 30.0927C366.279 29.9108 365.173 30.0063 364.107 30.294L361.344 31.0392C360.183 31.3524 359.089 31.9201 358.124 32.7096C357.224 32.713 356.444 33.3657 356.136 34.3144C356.104 34.4137 356.074 34.4715 356.05 34.4631C351.071 32.7156 351.075 37.8913 351.129 41.1245C351.135 41.4554 351.124 41.7483 351.086 41.9862V42.0029C350.987 42.6428 350.962 43.1102 351.071 43.2883H351.071Z" fill="#2F2E41"/>
<rect x="235" y="72" width="52" height="1" fill="#3F3D56"/>
<path fill-rule="evenodd" clip-rule="evenodd" d="M291 72.5C291 76.0842 293.916 79 297.5 79C301.084 79 304 76.0842 304 72.5C304 68.9158 301.084 66 297.5 66C293.916 66 291 68.9158 291 72.5ZM291.929 72.5C291.929 69.428 294.428 66.9286 297.5 66.9286C300.572 66.9286 303.071 69.428 303.071 72.5C303.071 75.572 300.572 78.0714 297.5 78.0714C294.428 78.0714 291.929 75.572 291.929 72.5Z" fill="#3F3D56"/>
<circle cx="297" cy="72" r="3" fill="#0052FF"/>
<rect x="117" y="107" width="52" height="1" fill="#3F3D56"/>
<path fill-rule="evenodd" clip-rule="evenodd" d="M106.5 101C102.916 101 100 103.916 100 107.5C100 111.084 102.916 114 106.5 114C110.084 114 113 111.084 113 107.5C113 103.916 110.084 101 106.5 101ZM106.5 113.071C103.428 113.071 100.929 110.572 100.929 107.5C100.929 104.428 103.428 101.929 106.5 101.929C109.572 101.929 112.071 104.428 112.071 107.5C112.071 110.572 109.572 113.071 106.5 113.071Z" fill="#3F3D56"/>
<circle cx="106" cy="107" r="3" fill="#0052FF"/>
</svg>
