<svg width="212" height="260" viewBox="0 0 212 260" fill="none" xmlns="http://www.w3.org/2000/svg">
<path d="M31.3798 160.343C34.5149 156.92 39.6929 157.921 43.138 160.337C47.5718 163.446 48.8397 169.124 49.4938 174.157C50.6011 182.678 50.9287 194.722 60.6775 198.284C65.1817 199.93 70.3376 198.571 74.142 195.899C78.2974 192.98 80.8894 188.49 82.6255 183.836C84.7275 178.202 85.9442 172.175 86.9756 166.271C88.0303 160.233 88.7215 154.129 89.0319 148.009C89.3356 142.022 89.138 136.073 88.8978 130.089C88.7103 125.418 88.6387 120.512 90.231 116.044C91.8392 111.532 95.5782 108.1 100.495 107.648C105.267 107.208 110.181 109.203 113.634 112.422C121.918 120.145 122.308 132.754 124.16 143.109C125.132 148.55 126.554 154.056 129.535 158.79C131.987 162.683 135.394 165.947 139.319 168.368C147.234 173.252 157.321 174.677 166.105 171.322C174.681 168.046 181.584 160.885 184.571 152.277C185.308 150.151 185.764 147.955 185.995 145.721C186.102 144.682 184.463 144.69 184.356 145.721C183.374 155.216 177.224 163.816 168.797 168.319C160.126 172.953 149.625 172.365 141.153 167.561C136.988 165.2 133.364 161.868 130.847 157.806C127.794 152.879 126.487 147.136 125.535 141.498C123.818 131.314 123.038 119.622 115.338 111.803C109.366 105.739 98.3758 103.306 91.9574 110.06C85.3484 117.015 87.3295 128.219 87.5406 136.852C87.8496 149.497 86.5343 162.171 83.6186 174.485C82.3495 179.845 80.8896 185.372 77.7042 189.968C74.7931 194.168 70.0354 197.424 64.7375 197.372C59.4541 197.32 55.7418 193.472 53.8661 188.883C51.8873 184.043 51.7576 178.815 51.0729 173.705C50.4443 169.014 49.2989 163.823 45.7497 160.39C42.9897 157.721 38.8953 156.002 35.0108 156.616C33.1443 156.911 31.4891 157.81 30.221 159.195C29.5135 159.967 30.6691 161.119 31.3798 160.343L31.3798 160.343Z" fill="#FF6884" stroke="#FF6884"/>
<path d="M120.283 94H82.7176C81.7706 94 81 93.327 81 92.4998C81 91.6727 81.7706 91 82.7176 91H120.283C121.23 91 122 91.6727 122 92.4998C122 93.327 121.23 94 120.283 94V94Z" fill="#E6E6E6"/>
<path d="M178.283 193H140.718C139.771 193 139 192.327 139 191.5C139 190.673 139.771 190 140.718 190H178.283C179.23 190 180 190.673 180 191.5C180 192.327 179.23 193 178.283 193V193Z" fill="#2F2E41"/>
<path d="M208.283 260H170.718C169.771 260 169 259.327 169 258.5C169 257.673 169.771 257 170.718 257H208.283C209.23 257 210 257.673 210 258.5C210 259.327 209.23 260 208.283 260V260Z" fill="#E6E6E6"/>
<path d="M39.2827 57H1.71763C0.770586 57 0 56.327 0 55.4998C0 54.6727 0.770597 54 1.71763 54H39.2827C40.2298 54 41 54.6727 41 55.4998C41 56.327 40.2298 57 39.2827 57V57Z" fill="#E6E6E6"/>
<path d="M188.918 240H21.0821C20.4845 240 20 239.513 20 238.913V78.0867C20 77.486 20.4845 77 21.0821 77C21.6797 77 22.1642 77.486 22.1642 78.0867V143.709C22.1642 195.689 64.1258 237.827 115.888 237.827H188.918C189.515 237.827 190 238.313 190 238.913C190 239.514 189.515 240 188.918 240H188.918Z" fill="#0052FF"/>
<path d="M197.918 233H30.0821C29.4845 233 29 232.513 29 231.913L29 133.913C29 133.313 29.4845 133.913 30.0821 133.913C30.6797 133.913 31.1642 134.399 31.1642 135V136.708C31.1642 188.689 73.1258 230.827 124.888 230.827C124.888 230.827 124.888 231.313 124.888 231.913C124.888 232.514 124.403 233 123.806 233H197.918Z" fill="#E6E6E6"/>
<path d="M57.2827 175H19.7176C18.7706 175 18 174.327 18 173.5C18 172.673 18.7706 172 19.7176 172H57.2827C58.2298 172 59 172.673 59 173.5C59 174.327 58.2298 175 57.2827 175V175Z" fill="#2F2E41"/>
<circle cx="31.5" cy="160.5" r="4.5" fill="#3F3D56"/>
<circle cx="65.5" cy="198.5" r="4.5" fill="#3F3D56"/>
<circle cx="101.5" cy="107.5" r="4.5" fill="#3F3D56"/>
<circle cx="156.5" cy="172.5" r="4.5" fill="#3F3D56"/>
<circle cx="187.5" cy="146.5" r="4.5" fill="#3F3D56"/>
<path d="M178.247 43.3075L187.173 47.5259C183.512 42.4286 180.357 34.4678 178.668 28.1331C175.809 34.0339 171.199 41.254 166.636 45.5668L176.07 43.1456C170.257 71.5685 148.392 91.9734 123.354 91.9734L123 93C149.153 93 172.311 72.878 178.247 43.3075V43.3075Z" fill="#3F3D56"/>
<path d="M151.263 0H207.662C210.054 0 212 1.94164 212 4.32816C212 6.71467 210.054 8.65631 207.662 8.65631H151.263C148.871 8.65631 146.925 6.71467 146.925 4.32816C146.925 1.94164 148.871 0 151.263 0Z" fill="#FF6884"/>
<path d="M189.769 250C189.168 250 188.562 249.867 187.985 249.597C186.562 248.931 185.668 247.599 185.595 246.034L185.005 233.347C184.929 231.718 185.782 230.236 187.233 229.48C188.683 228.723 190.392 228.87 191.692 229.859L200.365 236.468C201.408 237.262 202.004 238.468 202 239.775C201.996 241.083 201.393 242.284 200.345 243.073L192.263 249.153C191.516 249.713 190.648 250 189.769 250V250Z" fill="#0052FF"/>
<path d="M30 80.2314C30 80.8321 29.8668 81.4381 29.5972 82.0152C28.9311 83.4384 27.599 84.3321 26.0345 84.4049L13.3472 84.9953C11.7178 85.0713 10.2364 84.2177 9.47977 82.7671C8.72312 81.3172 8.87019 79.6078 9.85917 78.3076L16.4676 69.6345C17.2616 68.5916 18.468 67.9958 19.7745 68C21.0832 68.0038 22.2843 68.6071 23.0729 69.6548L29.1527 77.7374C29.7133 78.4836 30 79.3516 30 80.2314H30Z" fill="#0052FF"/>
<path d="M101.432 68.1454C94.9472 66.5884 88.0181 67.9976 82.4743 71.668C76.6611 75.5167 72.8121 81.6798 71.5093 88.5076C68.8214 102.594 77.0332 116.666 90.0114 122.272C103.655 128.166 119.885 124.212 129.792 113.273C134.703 107.851 137.772 100.992 138.696 93.7387C139.607 86.593 138.568 78.3487 134.251 72.385C129.969 66.4695 122.838 64.4844 115.952 63.5149C109.27 62.5743 100.405 62.1654 96.792 69.2539C96.1031 70.6055 95.7794 72.0618 95.8557 73.5776C95.9088 74.6323 97.5523 74.6387 97.4989 73.5776C97.332 70.2634 99.5366 67.494 102.362 66.0045C105.638 64.2782 109.588 64.4244 113.159 64.8091C119.608 65.5038 126.928 66.743 131.578 71.7064C136.21 76.6507 137.599 84.1852 137.311 90.7483C137.011 97.5988 134.656 104.341 130.53 109.82C122.386 120.631 108.139 125.775 95.0316 122.282C82.2604 118.879 82.0934 111.283 82.3042 97.8312C82.4167 90.6547 75.6528 79.3587 81.1752 74.6821C86.5821 70.1033 94.076 68.0722 100.996 69.7335C102.023 69.9802 102.462 68.3926 101.432 68.1454L101.432 68.1454Z" fill="#E6E6E6"/>
</svg>
