<svg width="256" height="250" viewBox="0 0 256 250" fill="none" xmlns="http://www.w3.org/2000/svg">
<path d="M78.9418 183.866H47.0587C46.2549 183.866 45.6008 183.223 45.6008 182.433C45.6008 181.643 46.2549 181 47.0587 181H78.9418C79.7456 181 80.3993 181.643 80.3993 182.433C80.3993 183.223 79.7456 183.866 78.9418 183.866H78.9418H78.9418Z" fill="#0052FF"/>
<path d="M22 191.536C22 191.793 22.2103 192 22.4722 192H103.528C103.79 192 104 191.793 104 191.536C104 191.278 103.79 191.072 103.528 191.072H22.4722C22.2103 191.072 22 191.278 22 191.536Z" fill="#3F3D56"/>
<circle cx="194" cy="70" r="26" fill="#FF6884"/>
<path d="M0 224.5C0 224.777 0.211135 225 0.474055 225H208.526C208.789 225 209 224.777 209 224.5C209 224.223 208.789 224 208.526 224H0.474055C0.211135 224 0 224.223 0 224.5Z" fill="#3F3D56"/>
<path d="M2.66632 192L2 191.27L67.0326 131.95L90.4626 142.449L115.764 99.0767L136.551 89.0607L155.811 121.148C166.209 94.2389 192.286 66.0853 223.534 37.5215L224.303 38.1436C194.995 66.1916 169.92 94.367 155.69 122.869L137.875 93.1013C137.034 91.695 135.265 91.1518 133.779 91.8432L133.779 91.8432C122.416 97.1282 112.939 105.755 106.614 116.57L90.7648 143.668L87.147 142.046C75.0476 136.625 60.8833 138.897 51.0887 147.831L2.66632 192Z" fill="#3F3D56"/>
<path d="M225 42.9221L224.013 42.9906L222.419 39.5392L218.852 38.8149L218.714 37.8353L224.594 37L225 42.9221Z" fill="#3F3D56"/>
<path d="M124 64.4553L127.465 50.6719L140.962 50L145 69L124 64.4553Z" fill="#FFB6B6"/>
<path opacity="0.1" d="M124 64.4553L127.465 50.6719L140.962 50L145 69L124 64.4553Z" fill="black"/>
<circle cx="132.5" cy="41.5" r="16.5" fill="#FFB6B6"/>
<path d="M141.812 44.5552H141.812C141.812 44.5552 135.596 32.2851 128.312 32.9935C121.029 33.7019 117.192 34.5634 117.192 34.5634C117.192 34.5634 115.03 25.0069 125.209 21.331C125.209 21.331 112.267 8.62124 127.675 2.38656C143.084 -3.84812 151.706 4.10343 151.706 4.10343C151.706 4.10343 163.111 15.4468 148.747 23.925C148.747 23.925 159.413 38.2187 146.499 50C146.499 50 149.387 40.4663 146.373 42.2245C143.359 43.9827 141.812 44.5552 141.812 44.5552V44.5552L141.812 44.5552L141.812 44.5552Z" fill="#2F2E41"/>
<path d="M114.77 132L112.577 134.096L96.7342 167.97L95 224H121.618L134.105 196.253L142.518 223.732H166.452L172 173.85L157.086 138.571L114.77 132Z" fill="#2F2E41"/>
<path d="M141.945 62H124.249L105 72.3872L109.489 92.4692C109.489 92.4692 108.453 104.588 110.87 113.59C113.287 122.592 112.251 134.364 112.251 134.364L156.619 138L158 97.1435L157.309 69.7904L141.945 62V62H141.945Z" fill="#E6E6E6"/>
<path d="M108.432 73C108.432 73 97.801 73.348 96.0864 80.3085C94.3717 87.269 93 123.116 93 123.116C93 123.116 94.0288 144.386 105.517 134.273C117.005 124.16 115.976 93.5335 115.976 93.5335L108.432 73V73Z" fill="#E6E6E6"/>
<path d="M212.116 250H148.884C146.742 250 145 248.261 145 246.123V180.877C145 178.739 146.742 177 148.884 177H212.116C214.258 177 216 178.739 216 180.877V246.123C216 248.261 214.258 250 212.116 250Z" fill="white"/>
<path fill-rule="evenodd" clip-rule="evenodd" d="M149.295 250H212.705C215.073 250 217 248.077 217 245.713V180.287C217 177.923 215.073 176 212.705 176H149.295C146.927 176 145 177.923 145 180.287V245.713C145 248.077 146.927 250 149.295 250ZM145.801 180.287C145.801 178.364 147.368 176.799 149.295 176.799H212.705C214.632 176.799 216.199 178.364 216.199 180.287V245.713C216.199 247.636 214.632 249.201 212.705 249.201H149.295C147.368 249.201 145.801 247.636 145.801 245.713V180.287Z" fill="#3F3D56"/>
<path d="M182.969 233H177.812C177.184 233 176.674 232.597 176.674 232.101V209.4C176.674 208.905 177.184 208.502 177.812 208.502H182.969C183.597 208.502 184.108 208.905 184.108 209.4V232.101C184.108 232.597 183.597 233 182.969 233Z" fill="#0052FF"/>
<path d="M165.92 219.622C165.413 219.622 165 219.948 165 220.348V232.076C165 232.476 165.413 232.802 165.92 232.802H171.077C171.584 232.802 171.997 232.476 171.997 232.076V220.348C171.997 219.948 171.584 219.622 171.077 219.622H165.92Z" fill="#0052FF"/>
<path d="M194.861 233H189.705C189.077 233 188.566 232.597 188.566 232.101V194.899C188.566 194.403 189.077 194 189.705 194H194.861C195.489 194 196 194.403 196 194.899V232.101C196 232.597 195.489 233 194.861 233Z" fill="#0052FF"/>
<path d="M82.8674 71H76.8787C76.1495 71 75.5564 70.5452 75.5564 69.9861V44.3749C75.5564 43.8158 76.1495 43.361 76.8787 43.361H82.8674C83.5965 43.361 84.1896 43.8158 84.1896 44.3749V69.9862C84.1896 70.5452 83.5965 71 82.8674 71V71V71Z" fill="#0052FF"/>
<path d="M63.0684 55.907C62.4793 55.907 62 56.2746 62 56.7262V69.9575C62 70.4092 62.4793 70.7767 63.0684 70.7767H69.057C69.6461 70.7767 70.1254 70.4092 70.1254 69.9575V56.7262C70.1254 56.2746 69.6461 55.907 69.057 55.907H63.0684Z" fill="#0052FF"/>
<path d="M96.6777 71H90.689C89.9598 71 89.3667 70.5452 89.3667 69.9861V28.0139C89.3667 27.4548 89.9598 27 90.689 27H96.6777C97.4068 27 97.9999 27.4548 97.9999 28.0139V69.9861C97.9999 70.5452 97.4068 71 96.6777 71V71V71Z" fill="#0052FF"/>
<path d="M171.261 185.983C174.301 185.686 176.395 181.49 175.937 176.609C175.781 174.656 175.169 172.771 174.152 171.11L173.566 165.585L173.656 165.558L175.129 139.365C175.472 133.275 173.111 127.29 168.564 123.336C165.858 120.983 162.973 119.792 161.117 122.764C158.038 127.697 162.026 148.028 164.645 159.587L165.661 171.94C164.971 173.768 164.72 175.739 164.929 177.687C165.386 182.566 168.221 186.281 171.261 185.983V185.983Z" fill="#FFB6B6"/>
<path d="M154 70.5531C154 70.5531 163.079 67.0962 167.27 77.4669C171.46 87.8377 176 139 176 139L154.698 135.197L154 70.5531V70.5531L154 70.5531Z" fill="#E6E6E6"/>
<path d="M30.9857 66.0185H18.941C18.1372 66.0185 17.4832 65.3553 17.4832 64.5403C17.4832 63.7253 18.1372 63.0624 18.941 63.0624H30.9857C31.7895 63.0624 32.4432 63.7253 32.4432 64.5403C32.4432 65.3554 31.7895 66.0185 30.9857 66.0185Z" fill="#E6E6E6"/>
<path d="M30.9857 45.0661H18.941C18.1372 45.0661 17.4832 44.4029 17.4832 43.5879C17.4832 42.7728 18.1372 42.1099 18.941 42.1099H30.9857C31.7895 42.1099 32.4432 42.7728 32.4432 43.5879C32.4432 44.4029 31.7895 45.0661 30.9857 45.0661Z" fill="#E6E6E6"/>
<path d="M30.9857 29.9562H18.941C18.1372 29.9562 17.4832 29.293 17.4832 28.4779C17.4832 27.6629 18.1372 27 18.941 27H30.9857C31.7895 27 32.4432 27.6629 32.4432 28.4779C32.4432 29.293 31.7895 29.9562 30.9857 29.9562Z" fill="#E6E6E6"/>
<path d="M17 71.5212C17 71.7868 17.2103 72 17.4722 72H98.5278C98.7897 72 99 71.7868 99 71.5212C99 71.2557 98.7897 71.0425 98.5278 71.0425H17.4722C17.2103 71.0425 17 71.2557 17 71.5212Z" fill="#3F3D56"/>
<path d="M174 194.5C174 194.777 174.21 195 174.472 195H255.528C255.79 195 256 194.777 256 194.5C256 194.223 255.79 194 255.528 194H174.472C174.21 194 174 194.223 174 194.5H174Z" fill="#3F3D56"/>
<path d="M150 232.5C150 232.777 150.21 233 150.472 233H231.528C231.79 233 232 232.777 232 232.5C232 232.223 231.79 232 231.528 232H150.472C150.21 232 150 232.223 150 232.5H150Z" fill="#3F3D56"/>
<path d="M94.7391 69.0167C91.6989 69.314 89.6053 73.5101 90.0627 78.3912C90.2193 80.3435 90.8313 82.2292 91.8476 83.8904L92.4336 89.4146L92.3438 89.4421L90.8709 115.635C90.5285 121.725 92.8888 127.71 97.4363 131.664C100.142 134.017 103.027 135.208 104.883 132.236C107.962 127.303 103.974 106.972 101.355 95.4125L100.339 83.0602C101.029 81.2317 101.28 79.2611 101.071 77.3133C100.614 72.4339 97.7793 68.7194 94.7391 69.0167H94.7391V69.0167Z" fill="#FFB6B6"/>
</svg>
