<svg width="17" height="15" viewBox="0 0 17 15" fill="none" xmlns="http://www.w3.org/2000/svg">
<path d="M1.51408 2.99296L7.53521 6.76056L13.5211 2.99296V5.24648H15.0352V1.47887C15.0352 0.669014 14.3662 0 13.5211 0H1.51408C0.704225 0 0.0352113 0.669014 0.0352113 1.47887L0 10.493C0 11.338 0.704225 12.007 1.51408 12.007H9.01408V10.493H1.51408V2.99296ZM13.5211 1.47887L7.53521 5.24648L1.51408 1.47887H13.5211ZM15.0352 9.01408V12.007C15.0352 12.8169 14.3662 13.5211 13.5211 13.5211C12.7113 13.5211 12.0423 12.8169 12.0423 12.007V8.62676C12.0423 8.41549 12.1831 8.23944 12.3944 8.23944C12.6056 8.23944 12.7817 8.41549 12.7817 8.62676V12.007H14.2958V8.62676C14.2958 7.60563 13.4507 6.76056 12.3944 6.76056C11.3732 6.76056 10.5282 7.60563 10.5282 8.62676V12.007C10.5282 13.662 11.8662 15 13.5211 15C15.1761 15 16.5493 13.662 16.5493 12.007V9.01408H15.0352Z" fill="black"/>
</svg>
