<svg width="15" height="15" viewBox="0 0 15 15" fill="none" xmlns="http://www.w3.org/2000/svg">
<path d="M12.9577 8.23944C12.9577 7.99296 12.993 7.74648 12.993 7.5C12.993 7.25352 12.9577 7.00704 12.9577 6.76056L14.5423 5.52817C14.6831 5.42254 14.7183 5.21127 14.6127 5.03521L13.0986 2.42958C13.0282 2.32394 12.9225 2.25352 12.7817 2.25352C12.7465 2.25352 12.6761 2.25352 12.6408 2.28873L10.7746 3.02817C10.3873 2.74648 9.96479 2.46479 9.50704 2.28873L9.22535 0.316901C9.19014 0.140845 9.0493 0 8.87324 0H5.84507C5.66901 0 5.52817 0.140845 5.49296 0.316901L5.21127 2.28873C4.75352 2.46479 4.33099 2.74648 3.94366 3.02817L2.07746 2.28873C2.00704 2.25352 1.97183 2.25352 1.93662 2.25352C1.79577 2.25352 1.69014 2.32394 1.61972 2.42958L0.105634 5.03521C0 5.21127 0.0352113 5.42254 0.176056 5.52817L1.76056 6.76056C1.76056 7.00704 1.72535 7.25352 1.72535 7.5C1.72535 7.74648 1.76056 7.99296 1.76056 8.23944L0.176056 9.47183C0.0352113 9.57746 0 9.78873 0.105634 9.96479L1.61972 12.5704C1.69014 12.6761 1.79577 12.7465 1.93662 12.7465C1.97183 12.7465 2.04225 12.7465 2.07746 12.7113L3.94366 11.9718C4.33099 12.2535 4.75352 12.5352 5.21127 12.7113L5.49296 14.6831C5.52817 14.8592 5.66901 15 5.84507 15H8.87324C9.0493 15 9.19014 14.8592 9.22535 14.6831L9.50704 12.7113C9.96479 12.5352 10.3873 12.2535 10.7746 11.9718L12.6408 12.7113C12.7113 12.7465 12.7465 12.7465 12.7817 12.7465C12.9225 12.7465 13.0282 12.6761 13.0986 12.5704L14.6127 9.96479C14.7183 9.78873 14.6831 9.57746 14.5423 9.47183L12.9577 8.23944ZM11.4437 6.93662C11.4789 7.1831 11.4789 7.35915 11.4789 7.5C11.4789 7.64085 11.4789 7.8169 11.4437 8.06338L11.338 8.90845L12.007 9.43662L12.8169 10.0704L12.2887 10.9507L11.338 10.5634L10.5634 10.2817L9.89437 10.7746C9.57746 11.0211 9.26056 11.1972 8.94366 11.338L8.16901 11.6549L8.02817 12.5L7.88732 13.5211H6.83099L6.69014 12.5L6.58451 11.6549L5.77465 11.338C5.45775 11.1972 5.14085 11.0211 4.85915 10.7746L4.15493 10.2817L3.38028 10.5986L2.42958 10.9859L1.90141 10.0704L2.71127 9.43662L3.38028 8.90845L3.27465 8.06338C3.23944 7.8169 3.23944 7.64085 3.23944 7.5C3.23944 7.35915 3.23944 7.1831 3.27465 6.93662L3.38028 6.09155L2.71127 5.56338L1.90141 4.92958L2.42958 4.0493L3.38028 4.43662L4.15493 4.71831L4.82394 4.22535C5.14085 3.97887 5.45775 3.80282 5.77465 3.66197L6.5493 3.34507L6.69014 2.5L6.83099 1.47887H7.88732L8.02817 2.5L8.1338 3.34507L8.94366 3.66197C9.26056 3.80282 9.57746 3.97887 9.85915 4.22535L10.5282 4.71831L11.338 4.40141L12.2887 4.01408L12.8169 4.92958L12.007 5.56338L11.338 6.09155L11.4437 6.93662ZM7.35915 4.50704C5.70423 4.50704 4.3662 5.84507 4.3662 7.5C4.3662 9.15493 5.70423 10.493 7.35915 10.493C9.01408 10.493 10.3521 9.15493 10.3521 7.5C10.3521 5.84507 9.01408 4.50704 7.35915 4.50704ZM7.35915 9.01408C6.5493 9.01408 5.84507 8.30986 5.84507 7.5C5.84507 6.69014 6.5493 5.98592 7.35915 5.98592C8.16901 5.98592 8.87324 6.69014 8.87324 7.5C8.87324 8.30986 8.16901 9.01408 7.35915 9.01408Z" fill="black"/>
</svg>
