<svg width="15" height="8" viewBox="0 0 15 8" fill="none" xmlns="http://www.w3.org/2000/svg">
<path d="M11.2676 0H8.23944V1.51408H11.2676C12.5 1.51408 13.5211 2.53521 13.5211 3.76761C13.5211 5 12.5 6.02113 11.2676 6.02113H8.23944V7.53521H11.2676C13.3451 7.53521 15 5.84507 15 3.76761C15 1.69014 13.3451 0 11.2676 0ZM6.76056 6.02113H3.73239C2.5 6.02113 1.47887 5 1.47887 3.76761C1.47887 2.53521 2.5 1.51408 3.73239 1.51408H6.76056V0H3.73239C1.65493 0 0 1.69014 0 3.76761C0 5.84507 1.65493 7.53521 3.73239 7.53521H6.76056V6.02113ZM4.50704 3.02817H10.493V4.50704H4.50704V3.02817Z" fill="black"/>
</svg>
