<svg width="19" height="19" viewBox="0 0 19 19" fill="none" xmlns="http://www.w3.org/2000/svg">
<path d="M10.4366 4.7277H8.56338V8.56338H4.7277V10.4366H8.56338V14.2723H10.4366V10.4366H14.2723V8.56338H10.4366V4.7277ZM9.5 0C4.23709 0 0 4.23709 0 9.5C0 14.7629 4.23709 19 9.5 19C14.7629 19 19 14.7629 19 9.5C19 4.23709 14.7629 0 9.5 0ZM9.5 17.1268C5.30751 17.1268 1.87324 13.6925 1.87324 9.5C1.87324 5.30751 5.30751 1.87324 9.5 1.87324C13.6925 1.87324 17.1268 5.30751 17.1268 9.5C17.1268 13.6925 13.6925 17.1268 9.5 17.1268Z" fill="#747A80"/>
</svg>
