<svg width="21" height="16" viewBox="0 0 21 16" fill="none" xmlns="http://www.w3.org/2000/svg">
<path d="M1.64029 4.8292L3.73059 0H7.34553L8.5318 2.70512V0H13.0255L13.7317 1.95518L14.4163 0H21L20.9897 8.67547H6.81L6.25476 7.30791H4.77416L4.22284 8.67547H1.64029H0L1.64029 4.8292Z" fill="white"/>
<path d="M9.66506 7.37421V0.867606L12.2887 0.877222L13.8147 5.07227L15.3041 0.867606H17.9068V7.37421H16.2584V2.57987L14.5111 7.37421H13.0656L11.3134 2.57987V7.37421H9.66506Z" fill="#016FD0"/>
<path fill-rule="evenodd" clip-rule="evenodd" d="M1.6403 7.37421L4.47216 0.867606H6.61907L9.44822 7.37421H7.56392L7.04412 6.07129H4.0065L3.48398 7.37421H1.6403ZM6.4458 4.65867L5.51989 2.38189L4.59128 4.65867H6.4458Z" fill="#016FD0"/>
<path d="M4.22542 15.6625V7.95421L4.22542 6.98701H6.60875L7.91657 7.48264L10.5127 7.83123L13.4282 7.60314L14.4799 8.27176L15.4278 7.83123H18.9713L20.4282 6.98701L17.341 11.1526L20.5345 15.6625H15.4278L14.4356 14.3502L13.4282 15.6625H4.22542Z" fill="white"/>
<path d="M5.30983 14.578V8.07142H10.732V9.52685H6.98896V10.6398H10.6445V12.0096H6.98896V13.1654H10.732V14.578H5.30983Z" fill="#016FD0"/>
<path d="M11.0103 14.578L13.5882 11.3649L10.949 8.07142H12.9931L14.565 10.1074L16.1421 8.07142H18.1062L15.5016 11.3247L18.0843 14.578H16.0404L14.5143 12.5741L13.0252 14.578H11.0103Z" fill="#016FD0"/>
</svg>
