<svg width="100" height="38" viewBox="0 0 100 38" fill="none" xmlns="http://www.w3.org/2000/svg">
<mask id="mask0_0_7709" style="mask-type:luminance" maskUnits="userSpaceOnUse" x="0" y="-2" width="100" height="40">
<rect y="-1.17467" width="100" height="39" fill="white"/>
</mask>
<g mask="url(#mask0_0_7709)">
<path d="M104.099 1.26729L110.496 0L117.634 9.13725L123.363 18.6046L123.414 18.7063L129.264 32.8533L135.653 31.6103L142.172 26.6933L146.477 17.8253L153.723 12.8373L159.137 6.70728L166.694 12.5053L172.398 6.92412L178.961 3.55982L185.08 7.29968L189.839 10.5673L196.919 0.531955L203.576 13.0504L203.646 13.2378L209.732 40.2612L208.268 40.5908L202.204 13.6663L196.739 3.38833L190.212 12.6434L184.265 8.55793L178.897 5.27833L173.286 8.15333L166.814 14.4878L159.334 8.74933L154.787 13.899L154.651 14.0204L147.653 18.8363L143.364 27.6738L136.28 33.0171L128.347 34.5608L122.047 19.3263L116.402 9.9875L109.882 1.65033L104.824 2.65233L98.3051 8.94933L93.2735 22.8383L85.3297 28.4504L81.143 22.9443L76.4216 25.7298L74.5251 8.44033L72.0301 6.03533L66.4692 18.4128L61.083 14.6533L54.7773 17.894L47.1839 15.6878L43.2831 12.5043L29.0038 10.2408L23.557 6.64333L17.991 10.3613L12.6198 17.5498L6.21704 21.7763L-0.276566 33.408L-6.36513 35.4293H-14.3656L-19.96 29.323L-20.0631 29.1798L-26.116 18.2533L-31.5259 21.7848L-31.6902 21.8654L-43.5596 25.9798L-49.983 20.3523L-56.1784 31.7409L-74.769 31.7403L-79.9539 33.5663L-87.0709 37.7233L-93.4559 33.9743L-98.3267 37.7412L-106.165 36.4596L-106.346 36.4059L-112.322 33.7743L-117.9 39.2964L-124.555 39.5033L-130.503 34.7893L-132.338 35.5905L-133.951 36.306L-135.253 36.8961L-136.042 37.2664L-136.46 37.4729L-136.672 37.5863L-136.715 37.6181C-136.776 37.6574 -136.857 37.6892 -136.969 37.7253L-137.206 37.7976L-137.367 37.7695C-137.439 37.7562 -137.474 37.7476 -137.503 37.735L-137.564 37.7018L-137.676 37.6305L-137.789 37.5381L-138.034 37.3115L-138.479 36.8735L-139.17 36.1734L-140.661 34.6337L-142.101 33.1296L-143.4 31.7633L-149.821 27.7463L-155.795 29.6958L-162.841 27.637L-166.737 17.8603L-170.661 21.2393L-172.159 43.3528L-175.086 70.4394L-180.425 65.228L-186.225 51.4853L-192.105 55.232L-199.231 47.1073L-204.678 44.4843L-210.707 51.0403L-216.525 49.2985L-216.687 49.2284L-223.366 45.3453L-229.998 51.476L-236.587 43.1837L-235.413 42.2505L-229.829 49.2773L-223.571 43.4924L-216.008 47.8873L-211.175 49.3333L-205.029 42.6511L-198.304 45.8902L-191.825 53.2743L-185.533 49.2672L-179.161 64.3653L-176.245 67.2113L-173.653 43.2216L-172.116 20.5123L-166.122 15.3523L-161.718 26.4013L-155.818 28.1253L-149.62 26.1033L-142.522 30.5442L-142.375 30.6644L-140.049 33.1056L-138.1 35.1226L-137.553 35.6784L-137.108 36.1203L-136.697 35.9168L-136.108 35.6389L-135.132 35.1922L-134.094 34.7269L-132.942 34.2176L-130.685 33.234L-130.274 33.0566L-124.052 37.9863L-118.535 37.8143L-112.653 31.9905L-105.83 34.9933L-98.728 36.1543L-93.5717 32.1682L-87.069 35.9853L-80.6475 32.2346L-80.5184 32.1748L-75.0274 30.2409L-57.07 30.2403L-50.4049 17.9891L-43.227 24.2763L-32.266 20.4773L-25.5858 16.1163L-18.794 28.3753L-13.7059 33.9283H-6.60495L-1.30196 32.1673L5.08617 20.7257L11.5741 16.4423L16.9452 9.25708L23.5526 4.84257L29.558 8.80933L43.9178 11.0856L47.8961 14.3323L54.6241 16.2863L61.2016 12.907L65.842 16.1453L71.5358 3.47589L75.9574 7.73751L77.6591 23.2573L81.5305 20.9751L85.647 26.3893L92.023 21.8833L97.0132 8.11286L104.099 1.26729Z" fill="#23E33E"/>
</g>
</svg>
