<svg width="36" height="22" viewBox="0 0 36 22" fill="none" xmlns="http://www.w3.org/2000/svg">
<path d="M1.84615 0H34.1538C35.1735 0 36 0.787996 36 1.76V20.24C36 21.212 35.1735 22 34.1538 22H1.84615C0.826569 22 0 21.212 0 20.24V1.76C0 0.787996 0.826569 0 1.84615 0Z" fill="#0E4595"/>
<path fill-rule="evenodd" clip-rule="evenodd" d="M23.8956 6.91633C23.4273 6.74183 22.6932 6.55457 21.7767 6.55457C19.4406 6.55457 17.795 7.72277 17.781 9.3971C17.7678 10.6348 18.9558 11.3253 19.8525 11.7373C20.7728 12.1595 21.0821 12.4287 21.0778 12.8057C21.072 13.3831 20.3429 13.6468 19.6634 13.6468C18.7171 13.6468 18.2144 13.5163 17.438 13.1947L17.1333 13.0579L16.8015 14.9861C17.3537 15.2265 18.3749 15.4348 19.4351 15.4456C21.9203 15.4456 23.5335 14.2907 23.5519 12.5027C23.5608 11.5229 22.9309 10.7772 21.5669 10.1625C20.7406 9.76406 20.2345 9.49812 20.2399 9.09469C20.2399 8.73666 20.6682 8.35377 21.5938 8.35377C22.3669 8.34189 22.927 8.50931 23.3633 8.68377L23.5752 8.78321L23.8956 6.91633ZM12.991 15.3441L14.4692 6.73065H16.8334L15.3542 15.3441H12.991ZM28.1526 6.73052H29.9795V6.73026L31.893 15.3384H29.6992C29.6992 15.3384 29.4824 14.3493 29.4116 14.0477C29.2289 14.0477 28.4658 14.0467 27.7483 14.0457L27.746 14.0457C27.1104 14.0448 26.5112 14.044 26.3837 14.044C26.2919 14.277 25.8861 15.3384 25.8861 15.3384H23.4035L26.9146 7.44482C27.1631 6.88395 27.5867 6.73052 28.1526 6.73052ZM27.081 12.2926C27.2765 11.7963 28.0229 9.88475 28.0229 9.88475C28.0163 9.89571 28.0602 9.78258 28.1209 9.62614L28.121 9.6258C28.1875 9.45456 28.274 9.23157 28.3364 9.06265L28.4961 9.80533C28.4961 9.80533 28.9489 11.8614 29.0435 12.2926H27.081ZM8.66935 12.6045L10.984 6.73052V6.73043H13.4883L9.76627 15.3276L7.26484 15.3304L5.14844 7.79761C6.64927 8.54398 7.9918 10.0348 8.42269 11.4108L8.66935 12.6045Z" fill="white"/>
<path d="M6.50944 6.73022H2.69717L2.66699 6.90943C5.63286 7.62241 7.59534 9.3454 8.41016 11.4155L7.58116 7.45723C7.43804 6.91185 7.02301 6.74909 6.50953 6.73004" fill="#F2AE14"/>
</svg>
