<svg width="15" height="15" viewBox="0 0 15 15" fill="none" xmlns="http://www.w3.org/2000/svg">
<path d="M7.5 0C3.34507 0 0 3.34507 0 7.5C0 11.6549 3.34507 15 7.5 15C11.6549 15 15 11.6549 15 7.5C15 3.34507 11.6549 0 7.5 0ZM3.80282 12.2183C4.11972 11.5493 6.09155 10.8803 7.5 10.8803C8.90845 10.8803 10.8803 11.5493 11.1972 12.2183C10.1761 13.0282 8.90845 13.5211 7.5 13.5211C6.09155 13.5211 4.82394 13.0282 3.80282 12.2183ZM12.2887 11.1268C11.1972 9.82394 8.59155 9.3662 7.5 9.3662C6.40845 9.3662 3.80282 9.82394 2.71127 11.1268C1.97183 10.1056 1.47887 8.87324 1.47887 7.5C1.47887 4.19014 4.19014 1.47887 7.5 1.47887C10.8099 1.47887 13.5211 4.19014 13.5211 7.5C13.5211 8.87324 13.0282 10.1056 12.2887 11.1268ZM7.5 2.99296C6.05634 2.99296 4.85915 4.15493 4.85915 5.6338C4.85915 7.07746 6.05634 8.23944 7.5 8.23944C8.94366 8.23944 10.1408 7.07746 10.1408 5.6338C10.1408 4.15493 8.94366 2.99296 7.5 2.99296ZM7.5 6.76056C6.8662 6.76056 6.37324 6.23239 6.37324 5.6338C6.37324 5 6.8662 4.50704 7.5 4.50704C8.1338 4.50704 8.62676 5 8.62676 5.6338C8.62676 6.23239 8.1338 6.76056 7.5 6.76056Z" fill="black"/>
</svg>
