<svg width="18" height="18" viewBox="0 0 18 18" fill="none" xmlns="http://www.w3.org/2000/svg">
<mask id="mask0_0_7790" style="mask-type:luminance" maskUnits="userSpaceOnUse" x="0" y="0" width="18" height="18">
<path fill-rule="evenodd" clip-rule="evenodd" d="M17.7907 7.36364H9.2093V10.8409H14.1488C13.6884 13.05 11.7628 14.3182 9.2093 14.3182C6.19535 14.3182 3.76744 11.9455 3.76744 9C3.76744 6.05455 6.19535 3.68182 9.2093 3.68182C10.507 3.68182 11.6791 4.13182 12.6 4.86818L15.2791 2.25C13.6465 0.859091 11.5535 0 9.2093 0C4.10233 0 0 4.00909 0 9C0 13.9909 4.10233 18 9.2093 18C13.814 18 18 14.7273 18 9C18 8.46818 17.9163 7.89545 17.7907 7.36364Z" fill="white"/>
</mask>
<g mask="url(#mask0_0_7790)">
<path d="M-0.837205 14.3182V3.68186L6.27907 9.00005L-0.837205 14.3182Z" fill="#FBBC05"/>
</g>
<mask id="mask1_0_7790" style="mask-type:luminance" maskUnits="userSpaceOnUse" x="0" y="0" width="18" height="18">
<path fill-rule="evenodd" clip-rule="evenodd" d="M17.7907 7.36364H9.2093V10.8409H14.1488C13.6884 13.05 11.7628 14.3182 9.2093 14.3182C6.19535 14.3182 3.76744 11.9455 3.76744 9C3.76744 6.05455 6.19535 3.68182 9.2093 3.68182C10.507 3.68182 11.6791 4.13182 12.6 4.86818L15.2791 2.25C13.6465 0.859091 11.5535 0 9.2093 0C4.10233 0 0 4.00909 0 9C0 13.9909 4.10233 18 9.2093 18C13.814 18 18 14.7273 18 9C18 8.46818 17.9163 7.89545 17.7907 7.36364Z" fill="white"/>
</mask>
<g mask="url(#mask1_0_7790)">
<path d="M-0.837205 3.68186L6.27907 9.00005L9.20931 6.50459L19.2558 4.90914V-0.818136H-0.837205V3.68186Z" fill="#EA4335"/>
</g>
<mask id="mask2_0_7790" style="mask-type:luminance" maskUnits="userSpaceOnUse" x="0" y="0" width="18" height="18">
<path fill-rule="evenodd" clip-rule="evenodd" d="M17.7907 7.36364H9.2093V10.8409H14.1488C13.6884 13.05 11.7628 14.3182 9.2093 14.3182C6.19535 14.3182 3.76744 11.9455 3.76744 9C3.76744 6.05455 6.19535 3.68182 9.2093 3.68182C10.507 3.68182 11.6791 4.13182 12.6 4.86818L15.2791 2.25C13.6465 0.859091 11.5535 0 9.2093 0C4.10233 0 0 4.00909 0 9C0 13.9909 4.10233 18 9.2093 18C13.814 18 18 14.7273 18 9C18 8.46818 17.9163 7.89545 17.7907 7.36364Z" fill="white"/>
</mask>
<g mask="url(#mask2_0_7790)">
<path d="M-0.837205 14.3182L11.7209 4.90914L15.0279 5.31823L19.2558 -0.818136V18.8182H-0.837205V14.3182Z" fill="#34A853"/>
</g>
<mask id="mask3_0_7790" style="mask-type:luminance" maskUnits="userSpaceOnUse" x="0" y="0" width="18" height="18">
<path fill-rule="evenodd" clip-rule="evenodd" d="M17.7907 7.36364H9.2093V10.8409H14.1488C13.6884 13.05 11.7628 14.3182 9.2093 14.3182C6.19535 14.3182 3.76744 11.9455 3.76744 9C3.76744 6.05455 6.19535 3.68182 9.2093 3.68182C10.507 3.68182 11.6791 4.13182 12.6 4.86818L15.2791 2.25C13.6465 0.859091 11.5535 0 9.2093 0C4.10233 0 0 4.00909 0 9C0 13.9909 4.10233 18 9.2093 18C13.814 18 18 14.7273 18 9C18 8.46818 17.9163 7.89545 17.7907 7.36364Z" fill="white"/>
</mask>
<g mask="url(#mask3_0_7790)">
<path d="M19.2558 18.8182L6.27907 9.00005L4.60465 7.77277L19.2558 3.68186V18.8182Z" fill="#4285F4"/>
</g>
</svg>
