<svg width="24" height="24" viewBox="0 0 24 24" fill="none" xmlns="http://www.w3.org/2000/svg">
<rect width="24" height="24" fill="white"/>
<path d="M8.78824 17.778H15.2637V6.08958H8.78824V17.778Z" fill="#7375CF"/>
<path d="M9.20018 11.9338C9.19674 9.65541 10.2386 7.50136 12.0268 6.08958C8.97916 3.69415 4.60235 4.04287 1.97244 6.89065C-0.657479 9.73844 -0.657479 14.1291 1.97244 16.9769C4.60235 19.8247 8.97916 20.1734 12.0268 17.778C10.2388 16.366 9.19699 14.2121 9.20018 11.9338Z" fill="#EB001B"/>
<path d="M23.9999 11.9338C24.0155 14.7742 22.4024 17.3723 19.8498 18.6183C17.2973 19.8642 14.2566 19.5376 12.0268 17.778C13.8122 16.3639 14.8533 14.2113 14.8533 11.9338C14.8533 9.65623 13.8122 7.50363 12.0268 6.08958C14.2566 4.32996 17.2973 4.00335 19.8498 5.24929C22.4024 6.49523 24.0155 9.0934 23.9999 11.9338Z" fill="#00A2E5"/>
</svg>
