<svg width="15" height="15" viewBox="0 0 15 15" fill="none" xmlns="http://www.w3.org/2000/svg">
<path d="M10.7373 9.4504H10.0536L9.81233 9.20912C10.6568 8.24397 11.1394 6.9571 11.1394 5.58981C11.1394 2.4933 8.64611 0 5.58981 0C2.4933 0 0 2.4933 0 5.58981C0 8.64611 2.4933 11.1394 5.58981 11.1394C6.9571 11.1394 8.24397 10.6568 9.20912 9.81233L9.4504 10.0536V10.7373L13.7131 15L15 13.7131L10.7373 9.4504ZM5.58981 9.4504C3.45845 9.4504 1.72922 7.72118 1.72922 5.58981C1.72922 3.45845 3.45845 1.72922 5.58981 1.72922C7.72118 1.72922 9.4504 3.45845 9.4504 5.58981C9.4504 7.72118 7.72118 9.4504 5.58981 9.4504Z" fill="#747A80"/>
</svg>
