<svg width="569" height="71" viewBox="0 0 569 71" fill="none" xmlns="http://www.w3.org/2000/svg">
<rect opacity="0.7" x="230" y="60" width="6" height="11" fill="#EBF0F0"/>
<rect opacity="0.7" x="238" y="54" width="6" height="17" fill="#EBF0F0"/>
<rect opacity="0.7" x="246" y="60" width="6" height="11" fill="#EBF0F0"/>
<rect opacity="0.7" x="254" y="50" width="6" height="21" fill="#EBF0F0"/>
<rect opacity="0.7" x="270" y="57" width="6" height="14" fill="#EBF0F0"/>
<rect opacity="0.7" x="278" y="54" width="6" height="17" fill="#EBF0F0"/>
<rect opacity="0.7" x="285" y="44" width="6" height="27" fill="#EBF0F0"/>
<rect opacity="0.7" x="293" y="50" width="6" height="21" fill="#EBF0F0"/>
<rect opacity="0.7" x="491" y="60" width="6" height="11" fill="#EBF0F0"/>
<rect opacity="0.7" x="301" y="57" width="6" height="14" fill="#EBF0F0"/>
<rect opacity="0.7" x="309" y="44" width="6" height="27" fill="#EBF0F0"/>
<rect opacity="0.7" x="317" y="36" width="6" height="35" fill="#EBF0F0"/>
<rect opacity="0.7" x="325" y="19" width="6" height="52" fill="#EBF0F0"/>
<rect opacity="0.7" x="333" y="66" width="6" height="5" fill="#EBF0F0"/>
<rect opacity="0.7" x="341" y="39" width="6" height="32" fill="#EBF0F0"/>
<rect opacity="0.7" x="349" y="57" width="6" height="14" fill="#EBF0F0"/>
<rect opacity="0.7" x="357" y="62" width="6" height="9" fill="#EBF0F0"/>
<rect opacity="0.7" x="499" y="62" width="6" height="9" fill="#EBF0F0"/>
<rect opacity="0.7" x="365" y="46" width="6" height="25" fill="#EBF0F0"/>
<rect opacity="0.7" x="507" y="46" width="6" height="25" fill="#EBF0F0"/>
<rect opacity="0.7" x="373" y="42" width="6" height="29" fill="#EBF0F0"/>
<rect opacity="0.7" x="515" y="42" width="6" height="29" fill="#EBF0F0"/>
<rect opacity="0.7" x="380" y="29" width="6" height="42" fill="#EBF0F0"/>
<path opacity="0.7" fill-rule="evenodd" clip-rule="evenodd" d="M523 29H529V71H523V29Z" fill="#EBF0F0"/>
<rect opacity="0.7" x="388" y="39" width="6" height="32" fill="#EBF0F0"/>
<rect opacity="0.7" x="531" y="39" width="6" height="32" fill="#EBF0F0"/>
<rect opacity="0.7" x="396" y="42" width="6" height="29" fill="#EBF0F0"/>
<rect opacity="0.7" x="539" y="42" width="6" height="29" fill="#EBF0F0"/>
<rect opacity="0.7" x="404" y="27" width="6" height="44" fill="#EBF0F0"/>
<rect opacity="0.7" x="547" y="27" width="6" height="44" fill="#EBF0F0"/>
<rect opacity="0.7" x="412" width="6" height="71" fill="#EBF0F0"/>
<rect opacity="0.7" x="555" width="6" height="71" fill="#EBF0F0"/>
<rect opacity="0.7" x="420" y="54" width="6" height="17" fill="#EBF0F0"/>
<rect opacity="0.7" x="563" y="54" width="6" height="17" fill="#EBF0F0"/>
<rect opacity="0.7" x="428" y="42" width="6" height="29" fill="#EBF0F0"/>
<rect opacity="0.7" x="436" y="56" width="6" height="15" fill="#EBF0F0"/>
<rect opacity="0.7" x="444" y="13" width="6" height="58" fill="#EBF0F0"/>
<rect opacity="0.7" x="452" y="6" width="6" height="65" fill="#EBF0F0"/>
<rect opacity="0.7" x="460" y="23" width="6" height="48" fill="#EBF0F0"/>
<rect opacity="0.7" x="468" y="42" width="6" height="29" fill="#EBF0F0"/>
<rect opacity="0.7" x="476" y="26" width="6" height="45" fill="#EBF0F0"/>
<rect opacity="0.7" x="483" y="26" width="6" height="45" fill="#EBF0F0"/>
<rect opacity="0.7" y="54" width="6" height="17" fill="#EBF0F0"/>
<rect opacity="0.7" x="8" y="57" width="6" height="14" fill="#EBF0F0"/>
<rect opacity="0.7" x="16" y="54" width="6" height="17" fill="#EBF0F0"/>
<rect opacity="0.7" x="24" y="44" width="6" height="27" fill="#EBF0F0"/>
<rect opacity="0.7" x="32" y="39" width="6" height="32" fill="#EBF0F0"/>
<rect opacity="0.7" x="40" y="50" width="6" height="21" fill="#EBF0F0"/>
<rect opacity="0.7" x="48" y="42" width="6" height="29" fill="#EBF0F0"/>
<rect opacity="0.7" x="56" y="54" width="6" height="17" fill="#EBF0F0"/>
<rect opacity="0.7" x="64" y="57" width="6" height="14" fill="#EBF0F0"/>
<rect opacity="0.7" x="72" y="42" width="6" height="29" fill="#EBF0F0"/>
<rect opacity="0.7" x="80" y="29" width="6" height="42" fill="#EBF0F0"/>
<rect opacity="0.7" x="87" y="57" width="6" height="14" fill="#EBF0F0"/>
<rect opacity="0.7" x="95" y="62" width="6" height="9" fill="#EBF0F0"/>
<rect opacity="0.7" x="103" y="46" width="6" height="25" fill="#EBF0F0"/>
<rect opacity="0.7" x="111" y="19" width="6" height="52" fill="#EBF0F0"/>
<rect opacity="0.7" x="119" y="29" width="6" height="42" fill="#EBF0F0"/>
<rect opacity="0.7" x="127" y="39" width="6" height="32" fill="#EBF0F0"/>
<rect opacity="0.7" x="135" y="42" width="6" height="29" fill="#EBF0F0"/>
<rect opacity="0.7" x="143" y="27" width="6" height="44" fill="#EBF0F0"/>
<rect opacity="0.7" x="151" y="34" width="6" height="37" fill="#EBF0F0"/>
<rect opacity="0.7" x="159" y="13" width="6" height="58" fill="#EBF0F0"/>
<rect opacity="0.7" x="167" y="50" width="6" height="21" fill="#EBF0F0"/>
<path opacity="0.7" fill-rule="evenodd" clip-rule="evenodd" d="M175 60H181V71H175V60Z" fill="#EBF0F0"/>
<rect opacity="0.7" x="183" y="52" width="6" height="19" fill="#EBF0F0"/>
<rect opacity="0.7" x="190" y="50" width="6" height="21" fill="#EBF0F0"/>
<rect opacity="0.7" x="198" y="60" width="6" height="11" fill="#EBF0F0"/>
<rect opacity="0.7" x="206" y="42" width="6" height="29" fill="#EBF0F0"/>
<rect opacity="0.7" x="214" y="54" width="6" height="17" fill="#EBF0F0"/>
<rect opacity="0.7" x="222" y="54" width="6" height="17" fill="#EBF0F0"/>
<rect opacity="0.7" x="262" y="54" width="6" height="17" fill="#EBF0F0"/>
</svg>
