<svg width="17" height="17" viewBox="0 0 17 17" fill="none" xmlns="http://www.w3.org/2000/svg">
<path d="M8.5 5.42553C6.8 5.42553 5.42553 6.8 5.42553 8.5C5.42553 10.2 6.8 11.5745 8.5 11.5745C10.2 11.5745 11.5745 10.2 11.5745 8.5C11.5745 6.8 10.2 5.42553 8.5 5.42553ZM15.4085 7.74043C15.0468 4.52128 12.4787 1.95319 9.25957 1.59149V0H7.74043V1.59149C4.52128 1.95319 1.95319 4.52128 1.59149 7.74043H0V9.25957H1.59149C1.95319 12.4787 4.52128 15.0468 7.74043 15.4085V17H9.25957V15.4085C12.4787 15.0468 15.0468 12.4787 15.4085 9.25957H17V7.74043H15.4085ZM8.5 13.8894C5.49787 13.8894 3.11064 11.5021 3.11064 8.5C3.11064 5.49787 5.49787 3.11064 8.5 3.11064C11.5021 3.11064 13.8894 5.49787 13.8894 8.5C13.8894 11.5021 11.5021 13.8894 8.5 13.8894Z" fill="black"/>
</svg>
