<svg width="17" height="17" viewBox="0 0 17 17" fill="none" xmlns="http://www.w3.org/2000/svg">
<path d="M14.5311 5.99585V2.46888H11.0041L8.5 0L5.99585 2.46888H2.46888V5.99585L0 8.5L2.46888 11.0041V14.5311H5.99585L8.5 17L11.0041 14.5311H14.5311V11.0041L17 8.5L14.5311 5.99585ZM13.0145 10.3693V13.0145H10.3693L8.5 14.8838L6.63071 13.0145H3.98548V10.3693L2.11618 8.5L3.98548 6.63071V3.98548H6.63071L8.5 2.11618L10.3693 3.98548H13.0145V6.63071L14.8838 8.5L13.0145 10.3693ZM8.5 4.37344C6.20747 4.37344 4.37344 6.20747 4.37344 8.5C4.37344 10.7925 6.20747 12.6266 8.5 12.6266C10.7925 12.6266 12.6266 10.7925 12.6266 8.5C12.6266 6.20747 10.7925 4.37344 8.5 4.37344ZM8.5 11.1452C7.05394 11.1452 5.85477 9.94606 5.85477 8.5C5.85477 7.05394 7.05394 5.85477 8.5 5.85477C9.94606 5.85477 11.1452 7.05394 11.1452 8.5C11.1452 9.94606 9.94606 11.1452 8.5 11.1452Z" fill="white"/>
</svg>
