<svg width="24" height="24" viewBox="0 0 24 24" fill="none" xmlns="http://www.w3.org/2000/svg">
<rect width="24" height="24" fill="white"/>
<path d="M8.78821 17.778H15.2637V6.0896H8.78821V17.778Z" fill="#FF5F00"/>
<path d="M9.20018 11.9338C9.19674 9.65547 10.2386 7.50142 12.0268 6.08963C8.97916 3.6942 4.60235 4.04292 1.97244 6.8907C-0.657479 9.73849 -0.657479 14.1292 1.97244 16.977C4.60235 19.8247 8.97916 20.1735 12.0268 17.778C10.2388 16.3661 9.19699 14.2121 9.20018 11.9338Z" fill="#EB001B"/>
<path d="M23.9999 11.9338C24.0155 14.7742 22.4024 17.3723 19.8499 18.6183C17.2973 19.8642 14.2566 19.5376 12.0269 17.778C13.8123 16.3639 14.8533 14.2113 14.8533 11.9338C14.8533 9.65623 13.8123 7.50363 12.0269 6.08958C14.2566 4.32996 17.2973 4.00335 19.8499 5.24929C22.4024 6.49523 24.0155 9.0934 23.9999 11.9338Z" fill="#F79E1B"/>
</svg>
