<svg width="17" height="17" viewBox="0 0 17 17" fill="none" xmlns="http://www.w3.org/2000/svg">
<path d="M5.03704 13.419C4.13194 13.419 3.38426 14.1667 3.38426 15.1111C3.38426 16.0162 4.13194 16.7639 5.03704 16.7639C5.98148 16.7639 6.72917 16.0162 6.72917 15.1111C6.72917 14.1667 5.98148 13.419 5.03704 13.419ZM13.4583 13.419C12.5139 13.419 11.7662 14.1667 11.7662 15.1111C11.7662 16.0162 12.5139 16.7639 13.4583 16.7639C14.3634 16.7639 15.1111 16.0162 15.1111 15.1111C15.1111 14.1667 14.3634 13.419 13.4583 13.419ZM12.2384 9.20833C12.8681 9.20833 13.419 8.89352 13.6944 8.34259L16.6852 2.91204C17 2.36111 16.6065 1.65278 15.9769 1.65278H3.54167L2.75463 0H0V1.65278H1.69213L4.72222 8.02778L3.58102 10.0741C2.95139 11.2153 3.77778 12.5926 5.03704 12.5926H15.1111V10.9005H5.03704L5.98148 9.20833H12.2384ZM4.3287 3.34491H14.5602L12.2384 7.55556H6.33565L4.3287 3.34491Z" fill="black"/>
</svg>
