<svg width="24" height="24" viewBox="0 0 24 24" fill="none" xmlns="http://www.w3.org/2000/svg">
<rect width="24" height="24" fill="white"/>
<circle cx="12" cy="12" r="12" fill="#005B9C"/>
<mask id="mask0_0_7747" style="mask-type:luminance" maskUnits="userSpaceOnUse" x="0" y="0" width="24" height="24">
<circle cx="12" cy="12" r="12" fill="white"/>
</mask>
<g mask="url(#mask0_0_7747)">
<path d="M2.29942 0H12.8772C14.3537 0 15.2721 1.08959 14.9276 2.43081L10.0029 21.5729C9.65539 22.9095 8.17703 24 6.69944 24H-3.87727C-5.35176 24 -6.2722 22.9095 -5.92774 21.5729L-1.00099 2.43081C-0.656533 1.08959 0.821057 0 2.29942 0Z" fill="#E21836"/>
<path d="M11.8434 0H23.7911C25.2411 0 24.5873 1.08959 24.2461 2.43081L19.4098 21.5729C19.0705 22.9095 19.1764 24 17.7233 24H5.7756C4.32253 24 3.42329 22.9095 3.76465 21.5729L8.6007 2.43081C8.94409 1.08959 10.3923 0 11.8434 0Z" fill="#00447C"/>
<path d="M23.2986 0H33.8768C35.3555 0 36.2739 1.08959 35.9266 2.43081L31.0025 21.5729C30.6549 22.9095 29.1754 24 27.697 24H17.1237C15.6443 24 14.7266 22.9095 15.0732 21.5729L19.9981 2.43081C20.3425 1.08959 21.8192 0 23.2986 0Z" fill="#007B84"/>
</g>
<path fill-rule="evenodd" clip-rule="evenodd" d="M16.5525 7.53408C15.0414 7.54968 14.5951 7.53408 14.4526 7.5C14.3978 7.76361 13.3781 12.5256 13.3752 12.5296C13.1556 13.493 12.9959 14.1797 12.4533 14.6232C12.1453 14.881 11.7857 15.0054 11.3688 15.0054C10.6986 15.0054 10.3082 14.6685 10.2427 14.0296L10.2302 13.8103C10.2302 13.8103 10.4343 12.5198 10.4343 12.5125C10.4343 12.5125 11.5045 8.17298 11.6961 7.59935C11.7062 7.56672 11.709 7.54968 11.7115 7.53408C9.62844 7.55258 9.25917 7.53408 9.23374 7.5C9.21977 7.54677 9.16819 7.81582 9.16819 7.81582L8.07543 12.7069L7.98159 13.1217L7.8 14.4785C7.8 14.881 7.87808 15.2095 8.03353 15.4873C8.53138 16.368 9.9515 16.5 10.7549 16.5C11.79 16.5 12.7609 16.2774 13.4171 15.8709C14.5561 15.1896 14.8541 14.1246 15.1198 13.1783L15.243 12.6927C15.243 12.6927 16.3455 8.18567 16.5328 7.59935C16.54 7.56672 16.5428 7.54968 16.5525 7.53408Z" fill="white"/>
</svg>
