<svg width="15" height="16" viewBox="0 0 15 16" fill="none" xmlns="http://www.w3.org/2000/svg">
<path d="M7.88915 4.66981H6.75708V9.19811L10.3302 11.3208L10.8962 10.4009L7.88915 8.63208V4.66981ZM11.533 0L15 2.90094L14.0448 4.03302L10.5425 1.13208L11.533 0ZM3.46698 0L4.42217 1.13208L0.955189 4.03302L0 2.90094L3.46698 0ZM7.5 1.62736C3.75 1.62736 0.707547 4.66981 0.707547 8.41981C0.707547 12.1698 3.75 15.2123 7.5 15.2123C11.25 15.2123 14.2925 12.1698 14.2925 8.41981C14.2925 4.66981 11.25 1.62736 7.5 1.62736ZM7.5 13.7264C4.59906 13.7264 2.22877 11.3561 2.22877 8.41981C2.22877 5.51887 4.59906 3.14858 7.5 3.14858C10.4009 3.14858 12.7712 5.51887 12.7712 8.41981C12.7712 11.3561 10.4009 13.7264 7.5 13.7264Z" fill="black"/>
</svg>
