<svg width="570" height="200" viewBox="0 0 570 200" fill="none" xmlns="http://www.w3.org/2000/svg">
<path d="M249.176 74.1857V97.9624" stroke="#F20089" stroke-width="2" stroke-linecap="round"/>
<rect x="246.788" y="78.9554" width="4.77654" height="20.6688" rx="1" fill="#F20089"/>
<path d="M2.38829 26.4884V50.265" stroke="#F20089" stroke-width="2" stroke-linecap="round"/>
<rect y="31.2581" width="4.77654" height="20.6688" rx="1" fill="#F20089"/>
<path d="M257.137 82.1353V119.894" stroke="#F20089" stroke-width="2" stroke-linecap="round"/>
<rect x="254.749" y="107.574" width="4.77654" height="7.94956" rx="1" fill="#F20089"/>
<path d="M10.3493 34.4379V72.1968" stroke="#F20089" stroke-width="2" stroke-linecap="round"/>
<rect x="7.96098" y="59.8765" width="4.77654" height="7.94956" rx="1" fill="#F20089"/>
<path d="M225.293 54.3118V92.0706" stroke="#F20089" stroke-width="2" stroke-linecap="round"/>
<rect x="222.905" y="79.7504" width="4.77654" height="7.94956" rx="1" fill="#F20089"/>
<path d="M265.098 102.009V131.258" stroke="#23E33E" stroke-width="2" stroke-linecap="round"/>
<rect x="262.709" y="101.214" width="4.77654" height="16.6941" rx="1" fill="#23E33E"/>
<path d="M18.31 54.3118V83.5602" stroke="#23E33E" stroke-width="2" stroke-linecap="round"/>
<rect x="15.9217" y="53.5168" width="4.77654" height="16.6941" rx="1" fill="#23E33E"/>
<path d="M233.254 74.1857V103.434" stroke="#23E33E" stroke-width="2" stroke-linecap="round"/>
<rect x="230.866" y="73.3907" width="4.77654" height="16.6941" rx="1" fill="#23E33E"/>
<path d="M273.059 86.7179V127.283" stroke="#23E33E" stroke-width="2" stroke-linecap="round"/>
<path fill-rule="evenodd" clip-rule="evenodd" d="M270.67 91.8806C270.67 91.3279 271.118 90.8798 271.671 90.8798H274.446C274.999 90.8798 275.447 91.3279 275.447 91.8806V108.163C275.447 108.716 274.999 109.164 274.446 109.164H271.671C271.118 109.164 270.67 108.716 270.67 108.163V91.8806Z" fill="#23E33E"/>
<path d="M26.271 39.0206V79.5854" stroke="#23E33E" stroke-width="2" stroke-linecap="round"/>
<rect x="23.8827" y="43.1824" width="4.77654" height="18.284" rx="1" fill="#23E33E"/>
<path d="M281.02 105.797V172.906" stroke="#F20089" stroke-width="2" stroke-linecap="round"/>
<rect x="278.631" y="108.369" width="4.77654" height="25.4386" rx="1" fill="#F20089"/>
<path d="M34.232 58.0995V125.208" stroke="#F20089" stroke-width="2" stroke-linecap="round"/>
<rect x="31.8437" y="60.6715" width="4.77654" height="25.4386" rx="1" fill="#F20089"/>
<path d="M288.98 135.21V194.028" stroke="#23E33E" stroke-width="2" stroke-linecap="round"/>
<rect x="286.592" y="137.782" width="4.77654" height="16.6941" rx="1" fill="#23E33E"/>
<path d="M42.1927 87.5129V146.331" stroke="#23E33E" stroke-width="2" stroke-linecap="round"/>
<rect x="39.8044" y="90.0848" width="4.77654" height="16.6941" rx="1" fill="#23E33E"/>
<path d="M296.941 114.541V151.55" stroke="#23E33E" stroke-width="2" stroke-linecap="round"/>
<path fill-rule="evenodd" clip-rule="evenodd" d="M294.553 124.474C294.553 123.921 295.001 123.473 295.554 123.473H298.329C298.881 123.473 299.33 123.921 299.33 124.474V139.166C299.33 139.719 298.881 140.167 298.329 140.167H295.554C295.001 140.167 294.553 139.719 294.553 139.166V124.474Z" fill="#23E33E"/>
<path d="M50.1537 66.844V103.853" stroke="#23E33E" stroke-width="2" stroke-linecap="round"/>
<rect x="47.7654" y="75.7756" width="4.77654" height="16.6941" rx="1" fill="#23E33E"/>
<path d="M304.902 122.491V149.914" stroke="#F20089" stroke-width="2" stroke-linecap="round"/>
<path fill-rule="evenodd" clip-rule="evenodd" d="M302.514 129.244C302.514 128.691 302.962 128.243 303.515 128.243H306.29C306.842 128.243 307.291 128.691 307.291 129.244V138.371C307.291 138.924 306.842 139.372 306.29 139.372H303.515C302.962 139.372 302.514 138.924 302.514 138.371V129.244Z" fill="#F20089"/>
<path d="M312.863 136.005V166.035" stroke="#F20089" stroke-width="2" stroke-linecap="round"/>
<rect x="310.475" y="140.167" width="4.77654" height="13.5142" rx="1" fill="#F20089"/>
<path d="M320.824 94.6674V139.239" stroke="#23E33E" stroke-width="2" stroke-linecap="round"/>
<path fill-rule="evenodd" clip-rule="evenodd" d="M318.436 118.114C318.436 117.561 318.884 117.113 319.437 117.113H322.211C322.764 117.113 323.212 117.561 323.212 118.114V137.576C323.212 138.129 322.764 138.577 322.211 138.577H319.437C318.884 138.577 318.436 138.129 318.436 137.576V118.114Z" fill="#23E33E"/>
<path d="M328.785 69.416V185.942" stroke="#23E33E" stroke-width="2" stroke-linecap="round"/>
<rect x="326.396" y="86.11" width="4.77654" height="39.7478" rx="1" fill="#23E33E"/>
<path d="M464.12 73.9986V141.108" stroke="#F20089" stroke-width="2" stroke-linecap="round"/>
<rect x="461.732" y="76.5706" width="4.77654" height="25.4386" rx="1" fill="#F20089"/>
<path d="M472.081 63.6642V122.482" stroke="#23E33E" stroke-width="2" stroke-linecap="round"/>
<rect x="469.693" y="66.2361" width="4.77654" height="16.6941" rx="1" fill="#23E33E"/>
<path d="M480.042 42.9953V80.0042" stroke="#23E33E" stroke-width="2" stroke-linecap="round"/>
<rect x="477.654" y="51.9269" width="4.77654" height="16.6941" rx="1" fill="#23E33E"/>
<path d="M559.651 36.6357V73.6446" stroke="#23E33E" stroke-width="2" stroke-linecap="round"/>
<rect x="557.262" y="45.5673" width="4.77654" height="16.6941" rx="1" fill="#23E33E"/>
<path d="M567.612 19.9416V56.9505" stroke="#23E33E" stroke-width="2" stroke-linecap="round"/>
<rect x="565.223" y="28.8732" width="4.77654" height="16.6941" rx="1" fill="#23E33E"/>
<path d="M488.003 58.8944V86.3177" stroke="#F20089" stroke-width="2" stroke-linecap="round"/>
<rect x="485.615" y="64.6462" width="4.77654" height="11.1294" rx="1" fill="#F20089"/>
<path d="M495.964 72.4087V102.438" stroke="#F20089" stroke-width="2" stroke-linecap="round"/>
<rect x="493.575" y="76.5706" width="4.77654" height="13.5142" rx="1" fill="#F20089"/>
<path d="M551.69 50.1499V80.1797" stroke="#F20089" stroke-width="2" stroke-linecap="round"/>
<rect x="549.302" y="54.3118" width="4.77654" height="13.5142" rx="1" fill="#F20089"/>
<path d="M503.925 46.9701V91.5416" stroke="#23E33E" stroke-width="2" stroke-linecap="round"/>
<path fill-rule="evenodd" clip-rule="evenodd" d="M501.536 70.4168C501.536 69.8641 501.984 69.416 502.537 69.416H505.312C505.865 69.416 506.313 69.8641 506.313 70.4168V89.8789C506.313 90.4317 505.865 90.8798 505.312 90.8798H502.537C501.984 90.8798 501.536 90.4317 501.536 89.8789V70.4168Z" fill="#23E33E"/>
<path d="M511.885 21.7186V138.245" stroke="#23E33E" stroke-width="2" stroke-linecap="round"/>
<rect x="509.497" y="38.4127" width="4.77654" height="39.7478" rx="1" fill="#23E33E"/>
<path d="M519.846 59.0815V126.89" stroke="#F20089" stroke-width="2" stroke-linecap="round"/>
<rect x="517.458" y="63.0563" width="4.77654" height="54.057" rx="1" fill="#F20089"/>
<path d="M336.746 106.779V173.712" stroke="#F20089" stroke-width="2" stroke-linecap="round"/>
<rect x="334.357" y="110.754" width="4.77654" height="54.057" rx="1" fill="#F20089"/>
<path d="M344.707 151.247V198.752" stroke="#23E33E" stroke-width="2" stroke-linecap="round"/>
<rect x="342.318" y="156.861" width="4.77654" height="14.3092" rx="1" fill="#23E33E"/>
<path d="M456.159 90.0359V137.541" stroke="#23E33E" stroke-width="2" stroke-linecap="round"/>
<rect x="453.771" y="95.6495" width="4.77654" height="14.3092" rx="1" fill="#23E33E"/>
<path d="M209.372 55.8528V103.358" stroke="#23E33E" stroke-width="2" stroke-linecap="round"/>
<rect x="206.983" y="61.4664" width="4.77654" height="14.3092" rx="1" fill="#23E33E"/>
<path d="M352.668 123.424V174.109" stroke="#23E33E" stroke-width="2" stroke-linecap="round"/>
<rect x="350.279" y="140.167" width="4.77654" height="24.6436" rx="1" fill="#23E33E"/>
<path d="M217.333 28.0294V78.714" stroke="#23E33E" stroke-width="2" stroke-linecap="round"/>
<rect x="214.944" y="44.7723" width="4.77654" height="24.6436" rx="1" fill="#23E33E"/>
<path d="M360.628 100.37V145.49" stroke="#23E33E" stroke-width="2" stroke-linecap="round"/>
<rect x="358.24" y="129.038" width="4.77654" height="14.3092" rx="1" fill="#23E33E"/>
<path d="M368.589 100.37V145.49" stroke="#23E33E" stroke-width="2" stroke-linecap="round"/>
<rect x="366.201" y="129.038" width="4.77654" height="14.3092" rx="1" fill="#23E33E"/>
<path d="M376.55 132.172V155.516" stroke="#F20089" stroke-width="2" stroke-linecap="round"/>
<rect x="374.162" y="136.987" width="4.77654" height="14.3092" rx="1" fill="#F20089"/>
<path d="M384.511 122.629V164.631" stroke="#23E33E" stroke-width="2" stroke-linecap="round"/>
<path fill-rule="evenodd" clip-rule="evenodd" d="M382.123 137.193C382.123 136.64 382.571 136.192 383.124 136.192H385.899C386.451 136.192 386.899 136.64 386.899 137.193V151.09C386.899 151.643 386.451 152.091 385.899 152.091H383.124C382.571 152.091 382.123 151.643 382.123 151.09V137.193Z" fill="#23E33E"/>
<path d="M392.472 126.604V168.606" stroke="#F20089" stroke-width="2" stroke-linecap="round"/>
<path fill-rule="evenodd" clip-rule="evenodd" d="M390.084 141.168C390.084 140.615 390.532 140.167 391.085 140.167H393.859C394.412 140.167 394.86 140.615 394.86 141.168V155.065C394.86 155.618 394.412 156.066 393.859 156.066H391.085C390.532 156.066 390.084 155.618 390.084 155.065V141.168Z" fill="#F20089"/>
<path d="M113.841 130.579V172.581" stroke="#F20089" stroke-width="2" stroke-linecap="round"/>
<path fill-rule="evenodd" clip-rule="evenodd" d="M111.452 145.143C111.452 144.59 111.901 144.142 112.453 144.142H115.228C115.781 144.142 116.229 144.59 116.229 145.143V159.04C116.229 159.593 115.781 160.041 115.228 160.041H112.453C111.901 160.041 111.452 159.593 111.452 159.04V145.143Z" fill="#F20089"/>
<path d="M400.433 101.165V139.193" stroke="#23E33E" stroke-width="2" stroke-linecap="round"/>
<path fill-rule="evenodd" clip-rule="evenodd" d="M398.045 106.19C398.045 105.637 398.493 105.189 399.045 105.189H401.82C402.373 105.189 402.821 105.637 402.821 106.19V121.677C402.821 122.23 402.373 122.678 401.82 122.678H399.045C398.493 122.678 398.045 122.23 398.045 121.677V106.19Z" fill="#23E33E"/>
<path d="M121.802 152.042V190.07" stroke="#23E33E" stroke-width="2" stroke-linecap="round"/>
<path fill-rule="evenodd" clip-rule="evenodd" d="M119.413 157.067C119.413 156.514 119.862 156.066 120.414 156.066H123.189C123.742 156.066 124.19 156.514 124.19 157.067V172.554C124.19 173.107 123.742 173.555 123.189 173.555H120.414C119.862 173.555 119.413 173.107 119.413 172.554V157.067Z" fill="#23E33E"/>
<path d="M408.394 74.9317V112.959" stroke="#23E33E" stroke-width="2" stroke-linecap="round"/>
<rect x="406.006" y="74.1857" width="4.77654" height="31.7982" rx="1" fill="#23E33E"/>
<path d="M129.762 125.809V163.836" stroke="#23E33E" stroke-width="2" stroke-linecap="round"/>
<rect x="127.374" y="125.063" width="4.77654" height="31.7982" rx="1" fill="#23E33E"/>
<path d="M416.355 86.0611V120.909" stroke="#F20089" stroke-width="2" stroke-linecap="round"/>
<path fill-rule="evenodd" clip-rule="evenodd" d="M413.967 91.0857C413.967 90.5329 414.415 90.0848 414.967 90.0848H417.742C418.295 90.0848 418.743 90.5329 418.743 91.0857V108.163C418.743 108.716 418.295 109.164 417.742 109.164H414.967C414.415 109.164 413.967 108.716 413.967 108.163V91.0857Z" fill="#F20089"/>
<path d="M169.567 87.651V122.499" stroke="#F20089" stroke-width="2" stroke-linecap="round"/>
<rect x="167.179" y="91.6747" width="4.77654" height="19.0789" rx="1" fill="#F20089"/>
<path d="M137.723 136.938V171.786" stroke="#F20089" stroke-width="2" stroke-linecap="round"/>
<rect x="135.335" y="140.962" width="4.77654" height="19.0789" rx="1" fill="#F20089"/>
<path d="M424.316 96.3955V155.092" stroke="#23E33E" stroke-width="2" stroke-linecap="round"/>
<rect x="421.927" y="102.804" width="4.77654" height="46.9024" rx="1" fill="#23E33E"/>
<path d="M177.528 38.3638V97.0601" stroke="#23E33E" stroke-width="2" stroke-linecap="round"/>
<rect x="175.14" y="44.7723" width="4.77654" height="46.9024" rx="1" fill="#23E33E"/>
<path d="M527.807 94.0107V152.707" stroke="#23E33E" stroke-width="2" stroke-linecap="round"/>
<rect x="525.419" y="100.419" width="4.77654" height="46.9024" rx="1" fill="#23E33E"/>
<path d="M145.684 105.14V163.836" stroke="#23E33E" stroke-width="2" stroke-linecap="round"/>
<rect x="143.296" y="111.549" width="4.77654" height="46.9024" rx="1" fill="#23E33E"/>
<path d="M432.277 41.5436V135.19" stroke="#23E33E" stroke-width="2" stroke-linecap="round"/>
<path fill-rule="evenodd" clip-rule="evenodd" d="M429.888 63.2622C429.888 62.7095 430.336 62.2614 430.889 62.2614H433.664C434.217 62.2614 434.665 62.7095 434.665 63.2622V111.343C434.665 111.895 434.217 112.344 433.664 112.344H430.889C430.336 112.344 429.888 111.895 429.888 111.343V63.2622Z" fill="#23E33E"/>
<path d="M185.489 31.2092V124.856" stroke="#23E33E" stroke-width="2" stroke-linecap="round"/>
<path fill-rule="evenodd" clip-rule="evenodd" d="M183.101 52.9278C183.101 52.375 183.549 51.9269 184.101 51.9269H186.876C187.429 51.9269 187.877 52.375 187.877 52.9278V101.008C187.877 101.561 187.429 102.009 186.876 102.009H184.101C183.549 102.009 183.101 101.561 183.101 101.008V52.9278Z" fill="#23E33E"/>
<path d="M535.768 31.2092V124.856" stroke="#23E33E" stroke-width="2" stroke-linecap="round"/>
<path fill-rule="evenodd" clip-rule="evenodd" d="M533.38 52.9278C533.38 52.375 533.828 51.9269 534.381 51.9269H537.155C537.708 51.9269 538.156 52.375 538.156 52.9278V101.008C538.156 101.561 537.708 102.009 537.155 102.009H534.381C533.828 102.009 533.38 101.561 533.38 101.008V52.9278Z" fill="#23E33E"/>
<path d="M153.645 65.3923V159.039" stroke="#23E33E" stroke-width="2" stroke-linecap="round"/>
<path fill-rule="evenodd" clip-rule="evenodd" d="M151.257 87.1109C151.257 86.5581 151.705 86.11 152.258 86.11H155.033C155.585 86.11 156.033 86.5581 156.033 87.1109V135.191C156.033 135.744 155.585 136.192 155.033 136.192H152.258C151.705 136.192 151.257 135.744 151.257 135.191V87.1109Z" fill="#23E33E"/>
<path d="M440.237 59.0326V146.319" stroke="#23E33E" stroke-width="2" stroke-linecap="round"/>
<rect x="437.849" y="103.599" width="4.77654" height="14.3092" rx="1" fill="#23E33E"/>
<path d="M193.45 1.00086V88.2876" stroke="#23E33E" stroke-width="2" stroke-linecap="round"/>
<rect x="191.062" y="45.5673" width="4.77654" height="14.3092" rx="1" fill="#23E33E"/>
<path d="M543.729 40.4544V88.2876" stroke="#23E33E" stroke-width="2" stroke-linecap="round"/>
<rect x="541.341" y="45.5673" width="4.77654" height="14.3092" rx="1" fill="#23E33E"/>
<path d="M161.606 45.5184V132.805" stroke="#23E33E" stroke-width="2" stroke-linecap="round"/>
<rect x="159.218" y="90.0848" width="4.77654" height="14.3092" rx="1" fill="#23E33E"/>
<path d="M448.198 49.4932V129.625" stroke="#F20089" stroke-width="2" stroke-linecap="round"/>
<rect x="445.81" y="78.1605" width="4.77654" height="30.2083" rx="1" fill="#F20089"/>
<path d="M201.411 15.3101V95.4422" stroke="#F20089" stroke-width="2" stroke-linecap="round"/>
<rect x="199.022" y="43.9774" width="4.77654" height="30.2083" rx="1" fill="#F20089"/>
<path d="M241.215 47.9522V82.6645" stroke="#23E33E" stroke-width="2" stroke-linecap="round"/>
<rect x="238.827" y="68.621" width="4.77654" height="11.1294" rx="1" fill="#23E33E"/>
<path d="M105.88 148.071V171.415" stroke="#F20089" stroke-width="2" stroke-linecap="round"/>
<rect width="4.77241" height="14.2968" rx="1" transform="matrix(-1.00086 0 0 1.00086 108.268 152.886)" fill="#F20089"/>
<path d="M97.9188 138.528V180.53" stroke="#23E33E" stroke-width="2" stroke-linecap="round"/>
<path fill-rule="evenodd" clip-rule="evenodd" d="M100.307 153.092C100.307 152.539 99.859 152.091 99.3063 152.091H96.5314C95.9787 152.091 95.5306 152.539 95.5306 153.092V166.99C95.5306 167.542 95.9787 167.99 96.5314 167.99H99.3063C99.859 167.99 100.307 167.542 100.307 166.99V153.092Z" fill="#23E33E"/>
<path d="M89.9581 138.528V180.53" stroke="#F20089" stroke-width="2" stroke-linecap="round"/>
<path fill-rule="evenodd" clip-rule="evenodd" d="M92.3464 153.092C92.3464 152.539 91.8983 152.091 91.3455 152.091H88.5707C88.0179 152.091 87.5698 152.539 87.5698 153.092V166.99C87.5698 167.542 88.0179 167.99 88.5707 167.99H91.3455C91.8983 167.99 92.3464 167.542 92.3464 166.99V153.092Z" fill="#F20089"/>
<path d="M81.9971 117.064V155.092" stroke="#23E33E" stroke-width="2" stroke-linecap="round"/>
<rect width="4.77241" height="17.4739" rx="1" transform="matrix(-1.00086 0 0 1.00086 84.3854 121.088)" fill="#23E33E"/>
<path d="M74.0361 90.8309V128.858" stroke="#23E33E" stroke-width="2" stroke-linecap="round"/>
<rect width="4.77241" height="31.7708" rx="1" transform="matrix(-1.00086 0 0 1.00086 76.4244 90.0848)" fill="#23E33E"/>
<path d="M66.0754 101.96V136.808" stroke="#F20089" stroke-width="2" stroke-linecap="round"/>
<rect width="4.77241" height="19.0625" rx="1" transform="matrix(-1.00086 0 0 1.00086 68.4637 105.984)" fill="#F20089"/>
<path d="M58.1144 54.2629V112.959" stroke="#23E33E" stroke-width="2" stroke-linecap="round"/>
<rect width="4.77241" height="46.8619" rx="1" transform="matrix(-1.00086 0 0 1.00086 60.5027 60.6714)" fill="#23E33E"/>
</svg>
