<svg width="14" height="16" viewBox="0 0 14 16" fill="none" xmlns="http://www.w3.org/2000/svg">
<path d="M12.4323 1.56771H11.6667V0H10.099V1.56771H3.90104V0H2.33333V1.56771H1.56771C0.692708 1.56771 0 2.26042 0 3.13542V14C0 14.875 0.692708 15.5677 1.56771 15.5677H12.4323C13.3073 15.5677 14 14.875 14 14V3.13542C14 2.26042 13.3073 1.56771 12.4323 1.56771ZM12.4323 14H1.56771V6.23438H12.4323V14ZM1.56771 4.66667V3.13542H12.4323V4.66667H1.56771ZM3.09896 7.80208H10.901V9.33333H3.09896V7.80208ZM3.09896 10.901H8.56771V12.4688H3.09896V10.901Z" fill="#747A80"/>
</svg>
