<svg width="17" height="15" viewBox="0 0 17 15" fill="none" xmlns="http://www.w3.org/2000/svg">
<path d="M8.5 2.74894C11.4298 2.74894 14.034 4.3766 15.3 6.98085C14.866 7.92128 14.2149 8.75319 13.4553 9.40426L14.5404 10.4894C15.5894 9.54894 16.4574 8.35532 17 6.98085C15.6617 3.61702 12.3702 1.19362 8.5 1.19362C7.5234 1.19362 6.58298 1.37447 5.67872 1.62766L6.98085 2.92979C7.45106 2.82128 7.95745 2.74894 8.5 2.74894ZM7.66809 3.61702L9.25957 5.20851C9.69362 5.42553 10.0553 5.78723 10.2723 6.22128L11.8638 7.81277C11.9362 7.55957 11.9723 7.27021 11.9723 6.98085C11.9723 5.06383 10.417 3.50851 8.5 3.50851C8.21064 3.50851 7.95745 3.54468 7.66809 3.61702ZM0.795745 1.12128L2.85745 3.18298C1.59149 4.15957 0.614894 5.4617 0 6.98085C1.3383 10.3809 4.62979 12.7681 8.5 12.7681C9.65745 12.7681 10.8149 12.5511 11.8277 12.1532L14.4681 14.7936L15.5532 13.7085L1.88085 0L0.795745 1.12128ZM6.58298 6.90851L8.60851 8.89787C8.57234 8.89787 8.53617 8.93404 8.5 8.93404C7.45106 8.93404 6.58298 8.06596 6.58298 6.98085C6.58298 6.94468 6.58298 6.94468 6.58298 6.90851ZM3.94255 4.26809L5.31702 5.60638C5.13617 6.04043 5.02766 6.51064 5.02766 6.98085C5.02766 8.89787 6.58298 10.4532 8.5 10.4532C8.97021 10.4532 9.44043 10.3809 9.87447 10.2L10.634 10.9596C9.94681 11.1404 9.2234 11.2489 8.5 11.2489C5.57021 11.2489 2.96596 9.58511 1.7 6.98085C2.24255 5.89574 3.0383 4.99149 3.94255 4.26809Z" fill="#747A80"/>
</svg>
