<svg width="12" height="15" viewBox="0 0 12 15" fill="none" xmlns="http://www.w3.org/2000/svg">
<path d="M3.73239 1.47887C7.04225 1.47887 9.75352 4.19014 9.75352 7.5C9.75352 10.8099 7.04225 13.5211 3.73239 13.5211C3.48592 13.5211 3.23944 13.4859 2.99296 13.4507C4.43662 11.831 5.24648 9.71831 5.24648 7.5C5.24648 5.28169 4.43662 3.16901 2.99296 1.5493C3.23944 1.51408 3.48592 1.47887 3.73239 1.47887ZM3.73239 0C2.39437 0 1.09155 0.352113 0 0.985915C2.21831 2.28873 3.73239 4.71831 3.73239 7.5C3.73239 10.2817 2.21831 12.7113 0 14.0141C1.09155 14.6479 2.39437 15 3.73239 15C7.88732 15 11.2676 11.6549 11.2676 7.5C11.2676 3.34507 7.88732 0 3.73239 0Z" fill="black"/>
</svg>
