<svg width="443" height="365" viewBox="0 0 443 365" fill="none" xmlns="http://www.w3.org/2000/svg">
<rect x="384.728" y="271.96" width="5.08078" height="15.0396" fill="#F2F2F2"/>
<path opacity="0.361049" d="M415.569 283.53H358.971C354.763 283.53 351.352 280.13 351.352 275.936C351.352 271.742 354.763 268.342 358.971 268.342H415.569C419.777 268.342 423.188 271.742 423.188 275.936C423.188 280.13 419.777 283.53 415.569 283.53Z" fill="white"/>
<path opacity="0.361049" d="M419.923 283.53C423.329 283.53 426.09 280.777 426.09 277.382V204.336C426.09 200.941 423.329 198.189 419.923 198.189C416.516 198.189 413.755 200.941 413.755 204.336C395.022 218.625 402.636 247.062 413.755 277.382C413.755 280.777 416.516 283.53 419.923 283.53V283.53Z" fill="white"/>
<path d="M412.362 251.423C411.524 255.163 409.946 258.117 407.965 260.444C403.931 265.203 398.215 267.362 393.705 268.341C389.655 269.224 386.579 269.152 386.579 269.152L367.537 270.716L352.488 271.952L337.366 273.196C338.228 276.808 339.049 280.957 339.83 285.395C339.918 285.925 340.015 286.462 340.112 287H309.402L308.886 285.395L305.73 275.644L299.329 261.704C298.161 259.433 297.573 256.953 297.573 254.457C297.573 252.796 297.839 251.143 298.362 249.537C298.37 249.513 298.37 249.489 298.378 249.465C299.61 245.758 302.654 242.917 306.422 241.785L310.972 240.413C323.871 237.411 341.948 232.732 355.732 229.105C367.247 226.071 375.758 223.76 375.758 223.76L375.782 223.599L378.165 207.356L401.926 205.277L409.648 204.595C409.648 204.595 409.479 205.398 409.544 208.279C409.544 208.456 409.544 208.64 409.552 208.825C409.568 209.386 409.592 210.028 409.624 210.743C409.632 210.984 409.648 211.232 409.664 211.489C409.689 211.987 409.721 212.516 409.761 213.086C409.761 213.126 409.761 213.166 409.769 213.207C409.809 213.921 409.866 214.699 409.938 215.534C409.954 215.879 409.987 216.232 410.019 216.593C410.172 218.415 410.365 220.502 410.615 222.877C410.631 223.118 410.655 223.359 410.687 223.599C410.719 223.977 410.76 224.354 410.8 224.739C410.88 225.413 410.953 226.103 411.033 226.826C411.041 226.898 411.049 226.962 411.057 227.034C411.13 227.668 411.21 228.318 411.283 228.992C411.371 229.723 411.46 230.469 411.557 231.232C411.613 231.745 411.677 232.275 411.75 232.821C411.782 233.077 411.814 233.342 411.847 233.607C411.887 233.888 411.919 234.177 411.959 234.466C412.024 234.979 412.088 235.509 412.161 236.047C412.314 237.243 412.483 238.478 412.652 239.763C413.272 244.313 413.095 248.173 412.362 251.423L412.362 251.423Z" fill="#2F2E41"/>
<path d="M412.361 251.423L406.137 254.104L373.052 268.341L367.536 270.716L353.993 276.543C354.379 278.573 354.79 280.58 355.233 282.554C355.442 283.509 355.652 284.456 355.877 285.395C356.006 285.933 356.127 286.462 356.264 287H328.855L328.645 285.395L327.848 279.111C326.262 277.699 325.328 274.994 324.764 272.121C324.201 269.256 323.999 266.198 323.862 264.079C323.862 264.055 323.862 264.023 323.854 263.999C323.629 260.083 331.303 257.483 334.37 255.043L338.139 253.799C345.925 248.414 357.495 240.26 368.696 232.339C372.939 229.338 377.134 226.368 381.039 223.599C393.182 214.98 402.635 208.247 402.635 208.247L401.926 205.277L409.648 204.595C409.648 204.595 409.479 205.398 409.543 208.279C409.543 208.456 409.543 208.64 409.551 208.825C409.567 209.395 409.592 210.028 409.624 210.743C409.632 210.984 409.648 211.232 409.664 211.489C409.688 211.987 409.72 212.516 409.761 213.086C409.761 213.126 409.761 213.166 409.769 213.207C409.809 213.921 409.865 214.699 409.938 215.534C409.954 215.879 409.986 216.232 410.018 216.593C410.163 218.415 410.357 220.494 410.614 222.877C410.63 223.118 410.655 223.359 410.687 223.599C410.719 223.977 410.759 224.354 410.799 224.739C410.88 225.413 410.952 226.111 411.033 226.826C411.041 226.898 411.049 226.962 411.057 227.034C411.13 227.668 411.21 228.318 411.283 228.992C411.371 229.723 411.46 230.469 411.556 231.232C411.621 231.753 411.685 232.283 411.75 232.821C411.782 233.077 411.814 233.342 411.846 233.607C411.886 233.888 411.919 234.177 411.959 234.466C412.023 234.979 412.088 235.509 412.16 236.047C412.313 237.243 412.482 238.478 412.651 239.763C413.271 244.313 413.094 248.173 412.362 251.423L412.361 251.423Z" fill="#2F2E41"/>
<path d="M417.317 212.84C418.581 218.225 418.074 221.916 417.575 227.181C417.39 229.123 418.026 231.916 416.134 233.224C414.515 234.324 356.292 233.802 355.752 229.308C355.14 224.228 356.332 218.899 358.82 214.316C363.321 206.018 365.898 195.858 367.218 188.643C370.012 173.483 363.715 165.249 366.067 150.129C366.469 147.553 366.55 145.114 366.453 142.778C366.131 134.664 363.619 127.779 364.416 120.789C364.746 117.915 365.632 115.026 367.46 112.025C367.999 111.134 368.619 110.235 369.336 109.328C373.491 104.048 374.578 100.067 381.792 100.075C382.895 100.075 384.071 100.003 385.262 99.9466C387.171 99.8423 389.119 99.7701 390.842 100.075C394.981 100.805 394.063 103.398 396.736 106.239L397.767 107.266C400.344 109.288 402.574 110.869 404.829 113.309C409.354 118.204 414.725 123.71 417.39 129.825C419.193 133.974 418.098 140.314 418.05 144.841C417.994 150.659 416.19 155.547 414.684 161.092C413.372 165.907 413.026 170.963 412.132 175.883C410.98 182.247 409.934 188.523 409.402 194.935C408.992 199.967 416.109 191.645 416.126 196.685C416.142 201.909 416.126 207.784 417.317 212.84L417.317 212.84Z" fill="#0052FF"/>
<path d="M316.461 115.912L334.391 119.111L333.987 129.575L315.151 125.52C314.637 125.807 314.074 126.026 313.469 126.157C310.18 126.874 306.93 124.797 306.211 121.518C305.492 118.24 307.576 115.001 310.866 114.284C312.964 113.827 315.042 114.51 316.461 115.912H316.461H316.461Z" fill="#FFB6B6"/>
<path d="M388.274 140.475C387.485 142.08 386.261 143.468 384.691 144.479C382.372 145.972 379.651 146.381 377.13 145.836C376.824 145.772 375.786 145.483 374.191 145.017C373.918 144.937 373.628 144.857 373.322 144.768C371.51 144.247 369.151 143.557 366.453 142.778C363.78 142 360.753 141.125 357.62 140.226L357.604 140.234C356.654 139.945 355.672 139.664 354.698 139.383H354.681C347.394 137.321 339.769 135.218 334.213 133.87C333.956 133.798 332.619 135.074 332.369 135.01C331.983 134.913 331.911 133.445 331.548 133.356C330.767 133.164 329.745 134.376 329.1 134.215C326.757 133.645 325.823 128.677 325.823 128.677L325.928 127.843L327.103 117.811L327.12 117.635L333.746 115.556L335.953 117.683L339.012 116.415L341.863 118.541L347.684 119.119L350.197 119.376L350.366 119.384L364.416 120.789L368.555 121.206C368.225 119.537 367.967 117.883 367.782 116.254C367.734 115.797 367.685 115.347 367.653 114.898L367.645 114.89C367.557 113.927 367.5 112.98 367.46 112.025C367.999 111.134 368.619 110.235 369.336 109.328C373.491 104.048 374.578 100.067 381.792 100.075C382.895 100.075 384.071 100.003 385.263 99.9466L387.123 116.367L389.168 134.424L389.232 135.009C389.442 136.936 389.095 138.822 388.274 140.475L388.274 140.475Z" fill="#0052FF"/>
<path opacity="0.624512" d="M353.455 110.705C352.537 110.047 351.361 109.927 350.322 110.384L319.033 124.132C316.182 125.384 312.961 125.608 309.966 124.766L309.507 124.637C310.81 113.099 307.485 100.682 300.956 87.6562C300.11 87.5438 299.265 87.7685 298.581 88.2982C297.775 88.9242 297.324 89.8712 297.357 90.8984L298.339 127.061L298.669 139.067C291.533 147.587 288.952 155.47 299.281 161.546C299.313 162.677 299.933 163.689 300.932 164.234C301.93 164.788 303.114 164.772 304.096 164.194L304.732 163.817L313.324 175.815C313.895 175.59 314.491 175.478 315.095 175.478C315.925 175.478 316.754 175.687 317.495 176.112L333.123 185.076L343.768 191.184C344.718 191.729 345.87 191.753 346.844 191.248C347.818 190.734 348.446 189.779 348.543 188.688L348.841 185.076L349.831 173.199L351.458 153.601L352.231 144.251L352.352 142.855L354.783 113.554C354.88 112.423 354.381 111.355 353.455 110.705V110.705L353.455 110.705Z" fill="#F2F2F2"/>
<path opacity="0.28039" d="M352.737 114.397C341.419 123.082 330.473 130.045 321.448 128.144C318.597 129.396 315.376 129.621 312.381 128.778L311.922 128.65C313.225 117.112 309.9 104.695 303.371 91.6689C302.526 91.5565 301.68 91.7812 300.996 92.3109C300.19 92.9369 299.74 93.8839 299.772 94.9111L300.754 131.073L301.084 143.079C293.948 151.6 291.368 159.483 301.696 165.559C301.728 166.69 302.348 167.701 303.347 168.247C304.345 168.801 305.529 168.785 306.511 168.207L307.147 167.83L315.739 179.828C316.31 179.603 316.906 179.491 317.51 179.491C318.34 179.491 319.169 179.699 319.91 180.125L335.539 189.089L346.183 195.196C347.133 195.742 348.285 195.766 349.259 195.261C350.233 194.747 350.861 193.792 350.958 192.7L351.256 189.089L352.246 177.211L353.873 157.613L354.646 148.264L354.767 146.867L357.198 117.567C357.295 116.435 356.796 115.368 355.87 114.718C354.952 114.06 353.776 113.939 352.737 114.397Z" fill="#E6E6E6"/>
<path d="M326.056 136.815L350.069 130.994L350.412 132.399L326.399 138.22L326.056 136.815Z" fill="white"/>
<path d="M326.056 147.663L350.069 141.843L350.412 143.248L326.399 149.069L326.056 147.663Z" fill="white"/>
<path d="M325.864 157.49L325.895 156.045L350.603 156.564L350.572 158.01L325.864 157.49Z" fill="white"/>
<path d="M325.855 167.883L325.94 166.439L350.612 167.868L350.528 169.312L325.855 167.883Z" fill="white"/>
<path d="M324.467 178.209L324.697 176.781L349.098 180.685L348.868 182.113L324.467 178.209Z" fill="white"/>
<path opacity="0.361049" d="M250.853 189.09H436.929C438.53 189.09 439.827 192.753 439.827 197.271V215.419C439.827 219.937 438.53 223.599 436.929 223.599H278.23C276.63 223.599 275.333 219.937 275.333 215.419L247.956 197.271C247.956 192.753 249.253 189.09 250.853 189.09H250.853V189.09Z" fill="white"/>
<path d="M384.494 73.1936C384.365 72.9689 384.228 72.7522 384.083 72.5435C383.947 72.3268 383.794 72.1182 383.641 71.9175C383.568 71.8132 383.496 71.7169 383.415 71.6286C382.69 70.7057 381.885 69.9593 381.064 69.5099C381.008 69.4778 380.951 69.4458 380.895 69.4217C380.766 69.3495 380.637 69.2933 380.5 69.2451C380.251 69.1488 380.001 69.0766 379.743 69.0445C379.623 69.0284 379.502 69.0204 379.381 69.0204C379.293 69.0204 379.204 69.0284 379.115 69.0365C379.067 69.0445 379.011 69.0525 378.954 69.0605C378.89 69.0685 378.817 69.0846 378.753 69.1006C378.681 69.1167 378.608 69.1408 378.544 69.1648C378.479 69.1889 378.407 69.213 378.342 69.2451C378.27 69.2772 378.197 69.3093 378.133 69.3495C378.061 69.3896 377.996 69.4297 377.932 69.4698C377.859 69.518 377.795 69.5661 377.73 69.6143C380.194 71.0027 382.61 72.4793 384.961 74.0282C384.816 73.7393 384.663 73.4664 384.494 73.1936V73.1936V73.1936Z" fill="#3F3D56"/>
<path d="M384.494 73.1936C384.365 72.9689 384.228 72.7522 384.083 72.5435C383.947 72.3268 383.794 72.1182 383.641 71.9175C383.568 71.8132 383.496 71.7169 383.415 71.6286C382.69 70.7057 381.885 69.9593 381.064 69.5099C381.008 69.4778 380.951 69.4458 380.895 69.4217C380.766 69.3495 380.637 69.2933 380.5 69.2451C380.251 69.1488 380.001 69.0766 379.743 69.0445C379.623 69.0284 379.502 69.0204 379.381 69.0204C379.293 69.0204 379.204 69.0284 379.115 69.0365C379.067 69.0445 379.011 69.0525 378.954 69.0605C378.89 69.0685 378.817 69.0846 378.753 69.1006C378.681 69.1167 378.608 69.1408 378.544 69.1648C378.479 69.1889 378.407 69.213 378.342 69.2451C378.27 69.2772 378.197 69.3093 378.133 69.3495C378.061 69.3896 377.996 69.4297 377.932 69.4698C377.859 69.518 377.795 69.5661 377.73 69.6143C380.194 71.0027 382.61 72.4793 384.961 74.0282C384.816 73.7393 384.663 73.4664 384.494 73.1936V73.1936V73.1936Z" fill="#3F3D56"/>
<path d="M424.73 51.8541H164V53.4591H316.037C331.472 53.4591 346.248 56.2359 359.904 61.3241H359.912C361.788 62.0223 363.632 62.7606 365.46 63.5471C369.679 65.3447 373.769 67.3752 377.731 69.6143C380.195 71.0027 382.61 72.4793 384.962 74.0282C389.986 77.3266 394.753 80.9782 399.23 84.9508L399.238 84.9588C399.439 85.1273 399.632 85.2959 399.825 85.4804C425.342 108.345 441.39 141.506 441.39 178.398V268.788C441.39 277.761 434.256 285.064 426.091 276.613C425.906 276.42 425.721 276.228 425.535 276.019H269.481V286.998H424.73C434.803 286.998 443 278.828 443 268.788V70.0637C443 60.0239 434.803 51.8541 424.73 51.8541H424.73V51.8541Z" fill="#3F3D56"/>
<path d="M384.494 73.1936C384.365 72.9689 384.228 72.7522 384.083 72.5435C383.947 72.3268 383.794 72.1182 383.641 71.9175C383.568 71.8132 383.496 71.7169 383.415 71.6286C382.69 70.7057 381.885 69.9593 381.064 69.5099C381.008 69.4778 380.951 69.4458 380.895 69.4217C380.766 69.3495 380.637 69.2933 380.5 69.2451C380.251 69.1488 380.001 69.0766 379.743 69.0445C379.623 69.0284 379.502 69.0204 379.381 69.0204C379.293 69.0204 379.204 69.0284 379.115 69.0365C379.067 69.0445 379.011 69.0525 378.954 69.0605C378.89 69.0685 378.817 69.0846 378.753 69.1006C378.681 69.1167 378.608 69.1408 378.544 69.1648C378.479 69.1889 378.407 69.213 378.342 69.2451C378.27 69.2772 378.197 69.3093 378.133 69.3495C378.061 69.3896 377.996 69.4297 377.932 69.4698C377.859 69.518 377.795 69.5661 377.73 69.6143C380.194 71.0027 382.61 72.4793 384.961 74.0282C384.816 73.7393 384.663 73.4664 384.494 73.1936V73.1936V73.1936Z" fill="#3F3D56"/>
<path d="M384.494 73.1936C384.365 72.9689 384.228 72.7522 384.083 72.5435C383.947 72.3268 383.794 72.1182 383.641 71.9175C383.568 71.8132 383.496 71.7169 383.415 71.6286C382.69 70.7057 381.885 69.9593 381.064 69.5099C381.008 69.4778 380.951 69.4458 380.895 69.4217C380.766 69.3495 380.637 69.2933 380.5 69.2451C380.251 69.1488 380.001 69.0766 379.743 69.0445C379.623 69.0284 379.502 69.0204 379.381 69.0204C379.293 69.0204 379.204 69.0284 379.115 69.0365C379.067 69.0445 379.011 69.0525 378.954 69.0605C378.89 69.0685 378.817 69.0846 378.753 69.1006C378.681 69.1167 378.608 69.1408 378.544 69.1648C378.479 69.1889 378.407 69.213 378.342 69.2451C378.27 69.2772 378.197 69.3093 378.133 69.3495C378.061 69.3896 377.996 69.4297 377.932 69.4698C377.859 69.518 377.795 69.5661 377.73 69.6143C380.194 71.0027 382.61 72.4793 384.961 74.0282C384.816 73.7393 384.663 73.4664 384.494 73.1936V73.1936V73.1936Z" fill="#3F3D56"/>
<path d="M384.494 73.1936C384.365 72.9689 384.228 72.7522 384.083 72.5435C383.947 72.3268 383.794 72.1182 383.641 71.9175C383.568 71.8132 383.496 71.7169 383.415 71.6286C382.69 70.7057 381.885 69.9593 381.064 69.5099C381.008 69.4778 380.951 69.4458 380.895 69.4217C380.766 69.3495 380.637 69.2933 380.5 69.2451C380.251 69.1488 380.001 69.0766 379.743 69.0445C379.623 69.0284 379.502 69.0204 379.381 69.0204C379.293 69.0204 379.204 69.0284 379.115 69.0365C379.067 69.0445 379.011 69.0525 378.954 69.0605C378.89 69.0685 378.817 69.0846 378.753 69.1006C378.681 69.1167 378.608 69.1408 378.544 69.1648C378.479 69.1889 378.407 69.213 378.342 69.2451C378.27 69.2772 378.197 69.3093 378.133 69.3495C378.061 69.3896 377.996 69.4297 377.932 69.4698C377.859 69.518 377.795 69.5661 377.73 69.6143C380.194 71.0027 382.61 72.4793 384.961 74.0282C384.816 73.7393 384.663 73.4664 384.494 73.1936V73.1936V73.1936Z" fill="#3F3D56"/>
<path d="M378.622 96.1914C379.092 96.2477 379.561 96.29 380.028 96.3113C381.48 96.3906 382.914 96.3081 384.297 96.0745C388.497 95.4035 392.313 93.4207 395.257 90.5128C398.37 87.4446 400.5 83.3493 401.076 78.6871C402.425 67.6823 394.563 57.6576 383.522 56.3129C372.639 54.9798 362.719 62.5664 361.135 73.3186C361.11 73.485 361.085 73.6445 361.067 73.8102C359.718 84.8221 367.573 94.8404 378.622 96.1914H378.622L378.622 96.1914Z" fill="#FFB6B6"/>
<path d="M356.594 72.582C359.454 73.9917 364.128 69.5597 365.918 72.1097C366.208 71.5586 366.529 71.0257 366.847 70.5217C367.134 70.0707 367.544 69.1081 368.02 68.9432C367.418 70.3892 367.551 72.3476 368.175 74.0255C370.996 75.0762 374.689 72.7504 377.301 69.9994C381.401 65.6859 388.096 76.7471 386.513 82.4715C388.528 80.0194 392.9 81.4024 394.381 84.2062C395.862 87.0029 393.36 89.2437 392.825 92.3633L396.864 91.852C399.412 89.3783 399.234 85.21 401.332 82.343C404.837 77.5449 406.195 72.6493 403.56 67.6975C401.223 63.3191 401.005 57.6524 396.717 55.1281C398.59 54.2152 391.928 55.6414 393.707 52.6662C395.495 49.6972 385.967 49.3369 385.346 50.9275C382.623 47.6799 379.877 45.5387 376.528 48.141C373.239 50.7011 373.58 53.3922 369.717 53.151C367.904 53.0391 368.103 56.4076 367.026 57.8762C365.954 59.3369 361.79 60.2747 361.587 60.1184C360.487 59.2606 356.745 66.5624 356.745 66.5624C356.745 66.5624 353.711 71.1534 356.594 72.582H356.594L356.594 72.582Z" fill="#2F2E41"/>
<path fill-rule="evenodd" clip-rule="evenodd" d="M264.593 2.81097C260.929 2.81097 257.95 5.78841 257.95 9.43995L264.593 2.81097ZM257.95 9.43995V50.7627V9.43995ZM257.95 50.7627C257.95 51.1318 257.982 51.501 258.039 51.8541L257.95 50.7627ZM258.039 51.8541C258.135 52.4159 258.296 52.9536 258.522 53.4592L258.039 51.8541ZM258.522 53.4592C259.561 55.7705 261.896 57.3836 264.593 57.3836L258.522 53.4592ZM264.593 57.3836H306.053H264.593ZM306.053 57.3836C308.75 57.3836 311.085 55.7705 312.124 53.4592L306.053 57.3836ZM312.124 53.4592C312.357 52.9536 312.518 52.4159 312.607 51.8541L312.124 53.4592ZM312.607 51.8541C312.671 51.501 312.703 51.1318 312.703 50.7627L312.607 51.8541ZM312.703 50.7627V9.43996V50.7627ZM312.703 9.43996C312.703 5.78842 309.716 2.81098 306.053 2.81097L312.703 9.43996ZM306.053 56.6052C308.315 56.6052 310.272 55.3291 311.246 53.4592C311.512 52.9616 311.705 52.4239 311.81 51.8541C311.882 51.501 311.914 51.1318 311.914 50.7627V29.9287C311.914 28.6046 311.818 27.3045 311.625 26.0284C311.62 26.0116 311.618 25.9925 311.616 25.9724C311.614 25.9542 311.612 25.9351 311.608 25.9161C311.593 25.7913 311.57 25.6699 311.548 25.5475C311.535 25.4809 311.523 25.4141 311.512 25.3463C310.634 20.3464 308.339 15.8202 305.054 12.2248L305.014 12.1846C304.99 12.1606 304.966 12.1365 304.941 12.1044C300.11 6.87183 293.186 3.58947 285.496 3.58947H264.593C261.445 3.58947 258.876 6.06929 258.747 9.18314V9.19117C258.731 9.27141 258.731 9.35169 258.731 9.43996V50.7626C258.731 51.1318 258.763 51.501 258.836 51.8541C258.941 52.4239 259.134 52.9616 259.4 53.4592C260.374 55.3291 262.33 56.6052 264.593 56.6052H306.053Z" fill="#E6E6E6"/>
<path d="M311.966 30.1012C311.966 15.4347 298.785 2.60528 284.248 0.334085C265.847 -2.54075 248.929 13.6226 251.363 30.1877C253.496 44.6994 278.487 65.7472 285.322 52.7592C293.144 37.8973 311.966 44.7677 311.966 30.1012H311.966Z" fill="#F20089"/>
<path d="M290.843 18.4694H277.461C277.122 18.4694 276.849 18.7422 276.849 19.0793C276.849 19.4163 277.122 19.6892 277.461 19.6892H290.843C291.181 19.6892 291.455 19.4163 291.455 19.0793C291.455 18.7422 291.181 18.4694 290.843 18.4694Z" fill="white"/>
<path d="M290.843 31.4785H277.461C277.122 31.4785 276.849 31.7514 276.849 32.0804C276.849 32.4175 277.122 32.6983 277.461 32.6983H290.843C291.181 32.6983 291.455 32.4175 291.455 32.0804C291.455 31.7514 291.181 31.4785 290.843 31.4785Z" fill="white"/>
<path d="M298.025 24.9779H270.278C269.94 24.9779 269.666 25.2508 269.666 25.5878C269.666 25.9249 269.94 26.1978 270.278 26.1978H298.025C298.363 26.1978 298.637 25.9249 298.637 25.5878C298.637 25.2508 298.363 24.9779 298.025 24.9779Z" fill="white"/>
<path d="M348.416 143.798L364.81 151.711L361.582 161.676L344.547 152.696C343.975 152.834 343.374 152.892 342.756 152.856C339.394 152.659 336.829 149.784 337.026 146.434C337.224 143.083 340.108 140.526 343.47 140.723C345.614 140.848 347.43 142.066 348.416 143.798V143.798H348.416Z" fill="#FFB6B6"/>
<path d="M418.329 133.987V133.979C416.783 131.563 414.279 129.773 411.243 129.204L408.956 128.77C403.32 139.251 398.11 149.957 397.136 162.942L373.238 153.593L372.159 153.175L369.993 150.359L366.7 150.752L366.12 149.757V149.749L365.154 148.119L358.213 148.336L358.149 148.489L358.14 148.497L354.759 156.699L354.751 156.707L354.292 157.83L353.97 158.609C353.97 158.609 353.768 160.824 354.259 162.669V162.685C354.501 163.608 354.92 164.435 355.62 164.828C356.2 165.149 357.512 164.258 358.213 164.652C358.535 164.836 358.205 166.281 358.551 166.473C358.777 166.602 360.403 165.735 360.637 165.864C362.488 166.899 364.582 168.119 366.812 169.435C367.948 170.109 369.115 170.799 370.307 171.521C382.723 178.961 397.482 188.319 398.706 188.961C398.795 189.009 398.883 189.049 398.972 189.089C401.194 190.188 403.819 190.461 406.356 189.691C406.887 189.53 407.394 189.33 407.869 189.089C408.747 188.664 409.544 188.11 410.237 187.46C411.831 185.999 412.918 184.025 413.296 181.802L419.883 141.498C420.326 138.786 419.706 136.137 418.329 133.987L418.329 133.987Z" fill="#0052FF"/>
<path fill-rule="evenodd" clip-rule="evenodd" d="M288.974 165.293C291.615 165.983 293.878 168.254 294.635 171.32C295.142 173.391 294.901 175.509 293.951 177.299C292.984 179.113 291.406 180.373 289.506 180.838C288.991 180.958 288.467 181.023 287.952 181.023C287.171 181.023 286.406 180.878 285.673 180.621C284.651 184.466 282.34 187.595 279.401 189.088C277.734 189.939 275.866 190.26 273.909 189.891H268.273C265.39 190.308 262.709 190.019 260.559 189.088C256.606 187.379 254.456 183.503 256.195 177.853C256.195 171.432 261.606 165.815 268.273 165.815H273.909C277.307 165.815 280.367 165.967 282.565 166.994C283.427 166.136 284.498 165.534 285.689 165.245C286.8 164.972 287.92 165.004 288.974 165.293ZM286.148 178.085C287.131 177.596 287.944 176.793 288.499 175.742C288.787 175.202 289.471 174.584 290.192 173.933C291.389 172.852 292.685 171.682 292.429 170.63C291.833 168.198 290.512 167.099 288.636 166.77C288.201 166.689 287.734 166.657 287.243 166.657C286.857 166.657 286.462 166.705 286.068 166.802C285.287 166.994 284.586 167.363 283.982 167.885C285.246 168.961 285.987 170.582 285.987 173.037C286.293 174.763 286.325 176.464 286.148 178.085ZM286.148 178.085C285.818 178.254 285.464 178.382 285.101 178.471C284.433 178.631 285.375 178.976 285.907 179.105C286.213 179.177 286.382 179.185 286.019 179.04C286.068 178.727 286.116 178.406 286.148 178.085Z" fill="#F2F2F2"/>
<path fill-rule="evenodd" clip-rule="evenodd" d="M178.735 173.786C185.181 173.786 190.411 179.624 190.411 186.296C193.003 195.354 186.659 200.033 178.735 198.807H173.287C170.251 199.425 167.433 198.19 165.292 195.813C163.751 194.103 162.56 191.801 161.914 189.174C161.206 189.441 160.466 189.591 159.711 189.591C159.213 189.591 158.707 189.524 158.209 189.399C157.306 189.157 156.473 188.715 155.757 188.106C155.01 187.481 154.387 186.68 153.912 185.721C152.994 183.861 152.76 181.659 153.251 179.507C153.702 177.514 154.73 175.854 156.053 174.712C157.703 173.277 159.82 172.651 161.899 173.194C163.051 173.494 164.078 174.119 164.919 175.012C164.96 174.992 165.001 174.973 165.041 174.954C165.123 174.915 165.204 174.876 165.292 174.837C167.379 173.928 170.189 173.786 173.287 173.786H178.735ZM161.455 186.538C161.284 184.854 161.315 183.085 161.611 181.292L161.611 181.292C161.611 178.74 162.327 177.055 163.549 175.938C162.965 175.395 162.288 175.012 161.533 174.812C161.151 174.712 160.77 174.661 160.389 174.661C159.268 174.661 158.302 174.862 157.509 175.354C157.509 175.354 157.501 175.354 157.501 175.362C156.504 175.979 155.78 177.064 155.384 178.79C155.136 179.883 156.389 181.1 157.546 182.223C158.242 182.899 158.904 183.542 159.182 184.103C159.353 184.445 159.548 184.762 159.766 185.054C160.233 185.688 160.801 186.188 161.455 186.538ZM161.455 186.538C161.774 186.714 162.117 186.847 162.467 186.939C163.487 187.206 160.63 187.931 161.58 187.531C161.533 187.206 161.486 186.872 161.455 186.538Z" fill="#F2F2F2"/>
<path opacity="0.409621" d="M13.8993 260H200.101C201.702 260 203 263.608 203 268.06L178.828 285.94C178.828 290.392 177.53 294 175.929 294H13.8993C12.2981 294 11 290.392 11 285.94V268.06C11 263.608 12.2981 260 13.8993 260Z" fill="white"/>
<path d="M90.0249 178.587L93.2822 200.31L81.1643 203.907L78.5356 180.818C78.0096 180.342 77.5428 179.784 77.1589 179.144C75.0711 175.664 76.1922 171.146 79.663 169.053C83.1338 166.96 87.64 168.084 89.7278 171.564C91.0594 173.783 91.0807 176.422 90.0249 178.587L90.0249 178.587Z" fill="#FFB6B6"/>
<path d="M96.7447 209.376C97.6087 219.186 91.7927 214.895 87.2167 224.471C85.4807 228.105 80.3287 227.567 78.4167 230.888C75.5047 235.941 78.1847 258.631 73.0167 261.422C67.8246 264.23 65.3846 256.113 61.2806 251.934C57.2646 247.843 52.5606 249.448 49.1286 244.884C45.6726 240.304 41.7605 236.221 38.3045 231.666C38.2325 231.578 38.1685 231.481 38.1045 231.393C36.5205 218.897 31.3605 204.179 33.5205 197.538C36.3765 196.495 39.4565 195.797 41.8645 195.821C46.2965 195.878 44.4246 198.3 48.2326 200.209C51.4326 201.813 55.3846 210.202 58.4726 212.071C60.6726 213.395 66.1046 223.91 68.9446 223.003C73.5926 221.52 78.1687 200.064 77.0807 196.134C76.1607 192.854 71.5687 188.747 71.4407 185.443C71.4327 185.322 71.4327 185.194 71.4407 185.074C76.0567 186.734 84.6327 182.499 89.3607 184.031C92.7367 185.13 96.7207 189.261 96.9527 192.782C97.1927 196.391 96.4247 205.759 96.7447 209.376V209.376Z" fill="#0052FF"/>
<path opacity="0.34189" d="M152.113 172.032C151.271 171.054 150.012 170.601 148.745 170.828L111.542 177.527C108.182 178.141 104.678 177.543 101.702 175.854L96.1849 172.727L85.8557 166.868L83.8508 165.736L75.4462 160.968L72.8078 159.473C71.7973 158.9 70.6024 158.843 69.5438 159.328C68.4852 159.805 67.7394 160.742 67.4989 161.882L64.8925 174.157L64.7 175.038L63.2324 181.964L59.5595 199.217L58.9821 201.957L58.7254 203.145L56.8488 211.994L56.496 213.626L51.5159 237.07L51.0828 239.099C50.8422 240.238 51.1309 241.386 51.8847 242.242C51.965 242.347 52.0612 242.444 52.1655 242.541C53.1198 243.43 54.427 243.729 55.662 243.349L56.7045 243.026L64.5557 240.626L82.5436 235.131L86.393 233.951L91.1245 232.504C91.6217 232.351 92.127 232.278 92.6322 232.278C93.9554 232.278 95.2546 232.779 96.233 233.725L119.49 256.013L120.516 256.999C121.414 257.863 122.673 258.195 123.876 257.888C124.911 257.629 125.753 256.95 126.218 256.013C126.306 255.851 126.378 255.682 126.435 255.504L132.938 235.785L134.053 232.407L137.678 221.417L137.967 220.544C153.873 230.782 151.295 198.459 152.811 175.563C153.22 174.335 152.955 173.01 152.113 172.032L152.113 172.032Z" fill="white"/>
<path opacity="0.793643" d="M142.745 175.828L105.542 182.527C102.182 183.141 98.6775 182.543 95.7023 180.854L90.1849 177.727L79.8557 171.868L77.8508 170.736L69.4462 165.968L66.8078 164.473C65.7973 163.9 64.6024 163.843 63.5438 164.328C62.4852 164.805 61.7394 165.742 61.4989 166.882L58.8925 179.157L58.7 180.038L57.2324 186.964L53.5595 204.217L52.9821 206.957L52.7254 208.145L50.8488 216.994L50.496 218.626L45.5159 242.07L45.0828 244.099C44.8422 245.238 45.1309 246.386 45.8847 247.242C45.965 247.347 46.0612 247.444 46.1655 247.541C47.1198 248.43 48.427 248.729 49.662 248.349L50.7045 248.026L58.5557 245.626L76.5436 240.131L80.393 238.951L85.1245 237.504C85.6217 237.351 86.127 237.278 86.6322 237.278C87.9554 237.278 89.2546 237.779 90.233 238.725L113.49 261.013L114.516 261.999C115.414 262.863 116.673 263.195 117.876 262.888C118.911 262.629 119.753 261.95 120.218 261.013C120.306 260.851 120.378 260.682 120.435 260.504L126.938 240.785L128.053 237.407L131.678 226.417L131.967 225.544C147.873 235.782 145.295 203.459 146.811 180.563C147.22 179.335 146.955 178.01 146.113 177.032C145.271 176.054 144.012 175.601 142.745 175.828Z" fill="#E6E6E6"/>
<path d="M42 247.582L42.7705 279L89 277.774L79.6578 243L42 247.582Z" fill="#FFB6B6"/>
<path d="M96.058 358C96.6166 355.409 94.8195 357.507 93.6053 356.411L93.5082 356.315C92.1887 354.877 90.5293 354.233 90.5536 352.445C90.5779 350.657 87.4048 352.254 85.6239 350.506C85.2434 350.132 84.1587 349.409 82.6774 348.503C78.0715 345.69 69.6772 341.096 67.1598 339.721C66.6903 339.467 66.4232 339.324 66.4232 339.324C66.4232 339.324 66.4151 339.459 66.3908 339.721C66.2532 341.382 65.6866 348.113 64.9985 356.411C64.958 356.935 64.9175 357.467 64.869 358H35.048C35.0803 357.46 35.0965 356.927 35.1046 356.411C35.1532 353.931 34.9427 351.618 34.3599 349.687C33.3076 346.214 32.3686 342.908 31.632 339.721C28.9364 328.11 28.9688 318.049 36.4646 307.089C37.8487 305.07 38.1159 298.641 38.1159 298.641C38.1159 298.641 40.6657 301.121 41.3214 301.74C41.1595 301.574 40.8357 301.256 40.3015 300.731C37.274 297.759 37.3712 296.861 38.9253 295.216C39.2006 294.93 39.5162 294.62 39.8724 294.27C42.2442 291.941 39.8724 294.27 38.6825 292.903C37.5007 291.528 40.4634 287.856 40.4634 287.856L39.3382 282.325L38.6825 279.114L42.1228 278.526L51.3346 276.945L86.0124 271L86.6681 272.645L92.5449 287.324C93.9938 288.143 95.5076 291.361 96.8675 295.216C99.4092 302.408 101.401 311.794 101.401 311.794L139.721 356.411L140.093 356.848C140.417 357.221 140.717 357.611 141 358H96.058L96.058 358Z" fill="#2F2E41"/>
<rect x="41" y="344" width="5" height="15" fill="#E6E6E6"/>
<path d="M11.4848 339H74.5152C79.2012 339 83 342.806 83 347.5C83 352.194 79.2012 356 74.5152 356H11.4848C6.7988 356 3 352.194 3 347.5C3 342.806 6.7988 339 11.4848 339Z" fill="#F2F2F2"/>
<path opacity="0.409621" d="M7.02464 358H7.02462C3.14502 358 0 354.936 0 351.157V269.843C0 266.064 3.14503 263 7.02462 263H7.02464C10.9042 263 14.0493 266.064 14.0493 269.843C35.3847 285.749 26.713 317.405 14.0493 351.157C14.0493 354.936 10.9042 358 7.02464 358V358Z" fill="white"/>
<path d="M88.5248 267.411C87.2131 277.15 78.0279 268.571 68.7885 266.951C60.1936 265.453 49.9753 280.634 40.7757 281.915C34.8309 282.745 39.5182 277.749 41.5715 256.13C41.8341 253.35 38.4837 234.921 38.0778 231.658C36.5021 219.103 31.3691 204.317 33.5178 197.645C33.8839 196.485 34.4728 195.574 35.3402 194.962C39.4228 192.069 41.2452 189.74 43.9908 185.582C46.3146 182.053 48.0017 179.329 52.331 179.047C56.4135 178.781 61.0372 179.684 64.9765 180.554C69.2819 181.513 64.3955 181.175 65.446 183.608C65.9553 184.801 66.8308 189.2 67.8335 190.86C70.8772 189.976 74.1513 190.967 76.2175 193.396C78.6212 196.223 80.7866 198.819 82.2776 202.85C84.5218 208.878 78.8635 219.603 81.3624 225.509C83.6146 230.844 78.1075 242.213 80.5666 246.46C83.6862 251.867 90.9122 249.683 88.5248 267.411V267.411H88.5248Z" fill="#F20089"/>
<path d="M107.646 190.253L107.85 188.66L134.985 192.118L134.782 193.711L107.646 190.253Z" fill="white"/>
<path d="M106.166 198.146L106.369 196.553L133.504 200.012L133.301 201.605L106.166 198.146Z" fill="white"/>
<path d="M105.362 204.572L105.565 202.979L132.7 206.437L132.497 208.03L105.362 204.572Z" fill="white"/>
<circle cx="66.5" cy="163.5" r="16.5" fill="#FFB6B6"/>
<path d="M145.694 180.275L127.668 188.592L130.906 199.72L149.656 190.238C150.274 190.406 150.926 190.487 151.598 190.464C155.256 190.338 158.12 187.223 157.996 183.506C157.873 179.789 154.807 176.878 151.15 177.004C148.817 177.084 146.812 178.383 145.694 180.275L145.694 180.275H145.694Z" fill="#FFB6B6"/>
<path d="M130.223 186.421L123.275 189.915L110.86 192.391L94.0277 199.413L91.475 200.475L79.695 198.201L71.5384 196.616L68.8503 196.098L59.0658 194.202L57.1202 194.078C56.5876 193.924 56.0127 193.777 55.3817 193.645C53.5024 193.243 51.2513 192.938 48.9442 192.819C48.2496 192.785 47.5456 192.765 46.8472 192.771C40.8777 192.786 35.1519 194.219 35.0113 198.547C34.9015 202.086 35.5958 205.468 36.9326 208.518C37.1361 208.981 37.3491 209.429 37.5799 209.875C40.4088 215.346 45.3754 219.547 51.417 221.256C52.7346 221.627 54.0991 221.873 55.5038 222L55.7953 221.971L56.8874 221.873L58.6802 221.712L61.9701 221.41L87.7997 219.053L90.8871 218.773L93.75 218.508L93.8155 218.477C97.4707 216.883 107.562 212.485 117.747 207.932C127.082 203.755 131.021 203.241 133.799 202.134C134.351 201.916 134.855 201.679 135.349 201.382C135.792 201.107 143.896 195.488 143.94 195.375C144.087 195.027 143.925 194.291 143.558 193.321C142.515 190.526 139.837 185.884 138.486 183.603L137.87 182.578L130.223 186.421H130.223L130.223 186.421Z" fill="#F20089"/>
<path d="M85.3304 153.789C85.3224 155.513 85.3145 158.906 83.838 159.76L83.4549 159.574C83.1995 159.413 82.8802 159.163 82.537 158.881C81.4835 158.011 80.1427 156.81 79.2249 156.649C79.177 155.199 79.2169 153.748 79.3606 152.306C79.4005 151.96 79.4404 151.613 79.4883 151.267C79.3526 151.5 79.2249 151.734 79.0972 151.976C78.339 153.41 77.7165 154.925 77.2616 156.48C75.7451 156.496 73.7179 156.287 72.8959 157.568C71.7067 159.429 73.4067 163.394 70.5095 165.11C69.895 165.473 69.0729 165.739 67.9795 165.86C69.1288 166.045 70.5894 166.609 71.3236 168.092C72.84 171.154 74.133 174.699 73.4466 177.963C73.3429 178.446 73.1992 178.921 73.0076 179.389C71.8424 182.225 69.1448 184.046 67.1654 186.383C67.1255 186.423 67.0936 186.464 67.0617 186.504C65.5373 188.341 65.0265 189.848 65.1861 191.274C65.4735 193.893 68.0035 196.23 70.6133 199.743C71.579 201.049 68.6979 207.825 69.5199 209.227C70.3579 210.629 70.8048 212.402 70.1424 213.901C69.4321 215.496 67.8359 216.206 66.0641 216.479C61.0041 212.974 56.6544 208.51 54.699 203.248C53.007 198.704 53.0948 193.579 56.0478 187.954C53.2145 192.902 52.1451 198.849 53.0709 204.489C53.0948 204.691 53.1267 204.884 53.1666 205.078C53.3103 205.835 53.5497 206.52 53.869 207.165C55.2976 210.041 58.2665 211.943 60.4534 214.594C59.5355 215.529 58.0351 216.955 56.5746 218.268C55.3295 219.396 54.1004 220.428 53.2943 221C52.7516 220.492 52.185 219.243 51.6502 217.616C51.4347 216.963 51.2192 216.246 51.0197 215.496C49.7667 210.96 48.7451 205.11 48.4817 203.313C47.7555 204.691 47.5479 208.583 47.6517 212.588C47.6676 213.176 47.6916 213.764 47.7155 214.344C47.947 219.388 41.7617 221.87 38.5053 218.043C37.8349 217.245 37.1486 216.351 36.4462 215.343C36.3584 211.492 36.9011 207.624 38.0983 203.974C38.1303 203.869 38.1462 203.82 38.1462 203.804C37.9866 204.038 36.3105 208.244 34.9937 211.484C34.3153 213.144 33.7327 214.546 33.4853 215.037C33.7327 213.546 34.2035 211.709 34.6984 209.912C35.8237 205.875 37.0927 202.08 36.3026 203.127C35.4965 204.199 34.7702 205.343 34.1477 206.536C32.9026 208.881 32.0327 211.435 31.5938 214.062C31.5538 214.296 31.5139 214.529 31.49 214.771C30.7637 214.586 30.0614 214.328 29.391 213.99C27.276 212.886 26.1347 210.573 26.0149 208.164C25.8234 204.393 27.4755 200.976 30.8754 201.508C32.1684 201.709 32.7111 200.936 32.7829 199.671C32.9585 197.052 31.1628 192.314 30.1172 189.767C29.6703 188.68 29.2074 187.552 28.8083 186.415C31.0191 183.571 32.1923 179.896 31.9369 176.287C31.1787 178.978 29.8299 181.492 28.0182 183.611C27.6271 181.71 27.5952 179.808 28.2896 177.995C30.6121 171.967 35.5683 174.522 39.072 169.107C43.1663 162.781 41.9612 159.478 44.3396 152.306C45.3612 149.212 47.7794 146.617 50.7803 145.392C53.7812 144.176 58.0591 136.432 69.4002 144.933C69.5838 144.764 69.7673 144.603 69.9588 144.458C73.1753 142.008 77.1339 143.571 81.3718 144.127C85.8572 144.716 84.3727 143.853 86.791 147.713C87.7008 149.172 85.3464 152.064 85.3304 153.789V153.789L85.3304 153.789Z" fill="#2F2E41"/>
<path fill-rule="evenodd" clip-rule="evenodd" d="M183.357 98.071C183.362 98.071 183.365 98.0736 183.365 98.0789C184.467 99.2474 185.132 100.805 185.132 102.514V143.442C185.132 147.059 182.132 150 178.443 150H136.697C133.008 150 130 147.059 130 143.442V102.514C130 98.8977 133.008 95.9487 136.697 95.9487H178.443C178.946 95.9487 179.425 96.0043 179.895 96.1077H179.903C181.257 96.4017 182.457 97.1012 183.357 98.071ZM178.443 149.229H136.697H178.443ZM136.697 149.229C133.438 149.229 130.795 146.638 130.795 143.442L136.697 149.229ZM130.795 143.442V122.807V143.442ZM130.795 122.807C130.795 122.625 130.795 122.45 130.803 122.267L130.795 122.807ZM130.803 122.267C130.827 121.106 130.924 119.962 131.103 118.833L130.803 122.267ZM131.103 118.833C131.118 118.709 131.141 118.589 131.164 118.468L131.103 118.833ZM131.164 118.468C131.176 118.402 131.189 118.336 131.2 118.269L131.164 118.468ZM131.2 118.269C132.084 113.317 134.394 108.834 137.702 105.273L131.2 118.269ZM137.702 105.273L137.743 105.233L137.702 105.273ZM137.743 105.233C142.607 100.002 149.613 96.7197 157.396 96.7197L137.743 105.233ZM157.396 96.7197H178.443H157.396ZM178.443 96.7197C181.703 96.7197 184.346 99.3189 184.346 102.514L178.443 96.7197ZM184.346 102.514L184.346 143.442L184.346 102.514Z" fill="#E6E6E6"/>
<path d="M130.741 122.978C130.741 108.452 144.014 95.7449 158.652 93.4954C177.18 90.648 194.215 100.298 191.764 116.705C189.617 131.078 164.453 158.284 157.57 145.42C149.694 130.7 130.741 137.505 130.741 122.978H130.741H130.741Z" fill="#0052FF"/>
<path d="M165.488 111.457H152.013C151.672 111.457 151.396 111.728 151.396 112.062C151.396 112.395 151.672 112.666 152.013 112.666H165.488C165.828 112.666 166.104 112.395 166.104 112.062C166.104 111.728 165.828 111.457 165.488 111.457Z" fill="white"/>
<path d="M165.488 124.342H152.013C151.672 124.342 151.396 124.613 151.396 124.939C151.396 125.272 151.672 125.551 152.013 125.551H165.488C165.828 125.551 166.104 125.272 166.104 124.939C166.104 124.613 165.828 124.342 165.488 124.342Z" fill="white"/>
<path d="M172.719 117.904H144.78C144.44 117.904 144.164 118.174 144.164 118.508C144.164 118.842 144.44 119.112 144.78 119.112H172.719C173.06 119.112 173.336 118.842 173.336 118.508C173.336 118.174 173.06 117.904 172.719 117.904Z" fill="white"/>
<path d="M37.6064 35C36.7204 35 36 35.7176 36 36.6V61.4C36 62.2824 36.7204 63 37.6064 63C38.4923 63 39.2127 62.2824 39.2127 61.4V36.6C39.2127 35.7176 38.4923 35 37.6064 35Z" fill="#3F3D56"/>
<ellipse cx="53.3502" cy="49.1363" rx="10.0103" ry="9.76055" fill="#0052FF"/>
<path opacity="0.6" d="M133.598 45.7972H79.7167C77.8682 45.7972 76.3643 44.2992 76.3643 42.4581C76.3643 40.6169 77.8682 39.119 79.7167 39.119H133.598C135.447 39.119 136.951 40.6169 136.951 42.4581C136.951 44.2992 135.447 45.7972 133.598 45.7972Z" fill="white"/>
<path opacity="0.6" d="M175.648 57.0989H79.7167C77.8682 57.0989 76.3643 55.6009 76.3643 53.7598C76.3643 51.9186 77.8682 50.4207 79.7167 50.4207H175.648C177.496 50.4207 179 51.9186 179 53.7598C179 55.6009 177.496 57.0989 175.648 57.0989Z" fill="white"/>
<path d="M170.606 337C169.72 337 169 337.718 169 338.6V363.4C169 364.282 169.72 365 170.606 365C171.492 365 172.213 364.282 172.213 363.4V338.6C172.213 337.718 171.492 337 170.606 337Z" fill="#3F3D56"/>
<ellipse cx="186.349" cy="351.136" rx="10.0103" ry="9.76054" fill="#0052FF"/>
<path opacity="0.6" d="M266.597 347.797H212.716C210.867 347.797 209.363 346.299 209.363 344.458C209.363 342.617 210.867 341.119 212.716 341.119H266.597C268.446 341.119 269.95 342.617 269.95 344.458C269.95 346.299 268.446 347.797 266.597 347.797Z" fill="white"/>
<path opacity="0.6" d="M308.647 359.099H212.716C210.867 359.099 209.363 357.601 209.363 355.76C209.363 353.919 210.867 352.421 212.716 352.421H308.647C310.495 352.421 311.999 353.919 311.999 355.76C311.999 357.601 310.495 359.099 308.647 359.099Z" fill="white"/>
<ellipse cx="78.3673" cy="135" rx="3.36735" ry="3" fill="#3F3D56"/>
<ellipse cx="90.0002" cy="135" rx="3.36734" ry="3" fill="#3F3D56"/>
<ellipse cx="101.633" cy="135" rx="3.36734" ry="3" fill="#3F3D56"/>
<ellipse cx="313.367" cy="66" rx="3.36734" ry="3" fill="#3F3D56"/>
<ellipse cx="325" cy="66" rx="3.36734" ry="3" fill="#3F3D56"/>
<ellipse cx="336.633" cy="66" rx="3.36734" ry="3" fill="#3F3D56"/>
<path d="M211.023 207.311C210.89 207.775 211.37 208.166 211.781 207.928C214.651 206.266 218.16 204.645 221.288 203.77C221.789 203.63 221.805 202.911 221.313 202.741L217.167 201.314L233 180.878L231.922 180L216.088 200.436L213.792 196.619C213.52 196.166 212.84 196.345 212.82 196.877C212.697 200.198 211.951 204.068 211.023 207.311Z" fill="#3F3D56"/>
<path d="M233.28 246.952C233.704 247.149 234.135 246.706 233.96 246.254C232.744 243.096 231.647 239.288 231.209 235.967C231.139 235.435 230.459 235.326 230.237 235.809L228.363 239.877L210.968 221L210 221.992L227.395 240.869L223.487 242.732C223.024 242.953 223.108 243.673 223.61 243.761C226.744 244.316 230.321 245.581 233.28 246.952V246.952Z" fill="#3F3D56"/>
</svg>
