<svg width="1025" height="391" viewBox="0 0 1025 391" fill="none" xmlns="http://www.w3.org/2000/svg">
<g clip-path="url(#clip0_0_3200)">
<mask id="mask0_0_3200" style="mask-type:luminance" maskUnits="userSpaceOnUse" x="0" y="0" width="1025" height="391">
<rect width="1025" height="391" fill="white"/>
</mask>
<g mask="url(#mask0_0_3200)">
<path fill-rule="evenodd" clip-rule="evenodd" d="M-50.8252 103.828L-35.7946 133.228L-19.8764 110.362L-2.19688 126.332L11.0619 132.5L26.096 107.095L41.1265 118.347L57.9254 148.109L72.956 133.228L88.9819 164.576L99.1748 180.038L105 117.959L126.815 101.572L137.064 141.54C137.064 141.54 153.05 148.799 153.05 148.799L168.08 141.177L184.876 157.509C184.876 157.509 199.029 180.739 199.029 180.013C199.029 179.287 215.825 168.036 215.825 168.036L230.852 186.545L245.882 185.819L260.032 164.043L275.947 174.932L294.511 179.649L306.892 164.769L322.807 179.287L339.602 164.042L352.865 156.783L382 148.436L394.5 101.572L430.673 134.281L458.97 119.037L473.997 103.793L489.911 148.436L503.177 170.939H521.821L535.891 163.68L567 250.096L587.044 165.457L601.187 129.119L636.549 137.828L646.278 150.17L663.961 158.155L679.873 145.45L692.254 158.881L706.151 110.812L714.692 123.606L719.135 186.572L729.746 176.845L739.998 197.802L757.681 178.386L770.056 125.304L786.855 100.081L801.001 95.7256L817.804 129.119L831.95 165.457L846.977 221.935L864.664 216.586L881.459 196.896L892.072 162.916L909.755 144L922.13 122.221L940.697 144.362L955.731 121.497L970.765 109.519L984.908 122.949L998.171 137.104L1014.97 100.082L1030 144L1045.03 247.722L1054 400H-45.0001L-50.8252 103.828Z" stroke="#FFBD00" stroke-width="2"/>
</g>
</g>
<defs>
<clipPath id="clip0_0_3200">
<rect width="1025" height="391" fill="white"/>
</clipPath>
</defs>
</svg>
