<svg width="17" height="17" viewBox="0 0 17 17" fill="none" xmlns="http://www.w3.org/2000/svg">
<path d="M15.0964 0H1.90365C0.841146 0 0 0.841146 0 1.90365V15.0964C0 16.1589 0.841146 17 1.90365 17H15.0964C16.1589 17 17 16.1589 17 15.0964V1.90365C17 0.841146 16.1589 0 15.0964 0ZM15.0964 15.0964H1.90365V12.263H5.26823C5.88802 13.4141 7.1276 14.1667 8.5 14.1667C9.91667 14.1667 11.112 13.4141 11.776 12.263H15.0964V15.0964ZM15.0964 10.4036H10.4036C10.4036 11.4219 9.5625 12.263 8.5 12.263C7.48177 12.263 6.64062 11.4219 6.64062 10.4036H1.90365V1.90365H15.0964V10.4036Z" fill="black"/>
</svg>
